<svg xmlns="http://www.w3.org/2000/svg" viewBox="0 0 32 32"><defs><style>.cls-1{fill:#152230;}</style></defs><title>favicon</title><g id="Favicon"><path class="cls-1" d="M11.33,17.87A6.47,6.47,0,0,1,14,20.33,6.92,6.92,0,0,1,15,24a6.9,6.9,0,0,1-1,3.67,6.52,6.52,0,0,1-2.77,2.47A9.21,9.21,0,0,1,7.14,31H1V17H7.28A9,9,0,0,1,11.33,17.87ZM9.17,26.18a3.18,3.18,0,0,0-.06-4.35A3.25,3.25,0,0,0,6.8,21H5v6H7A3,3,0,0,0,9.17,26.18Z"/><path class="cls-1" d="M27.33,1.87A6.47,6.47,0,0,1,30,4.33,6.92,6.92,0,0,1,31,8a6.9,6.9,0,0,1-1,3.67,6.52,6.52,0,0,1-2.77,2.47,9.21,9.21,0,0,1-4.11.87H17V1h6.28A9,9,0,0,1,27.33,1.87Zm-2.16,8.31A2.91,2.91,0,0,0,26,8a2.89,2.89,0,0,0-.89-2.19A3.25,3.25,0,0,0,22.8,5H21v6h2A3,3,0,0,0,25.17,10.18Z"/><path class="cls-1" d="M19.43,16.52A2,2,0,0,1,20,18a2.56,2.56,0,0,1-.53,1.44L18,22H16l.79-2.58a1.65,1.65,0,0,1-.59-.64A1.62,1.62,0,0,1,16,18a1.92,1.92,0,0,1,2-2A2.08,2.08,0,0,1,19.43,16.52Z"/><path class="cls-1" d="M31,17H21v2.64c0,.39.47,1.36.88,1.36h3.76c.34,0,.36.68.36,1v3c0,1.22-.17,1.66-.5,1.93a3.53,3.53,0,0,1-2,.79L18,28.08V31h8.47A4.35,4.35,0,0,0,31,26.87Z"/></g></svg>