<?xml version="1.0" encoding="UTF-8"?>
<svg width="120px" height="60px" viewBox="0 0 120 60" version="1.1" xmlns="http://www.w3.org/2000/svg" xmlns:xlink="http://www.w3.org/1999/xlink">
    <title>client-saw</title>
    <g id="client-saw" stroke="none" stroke-width="1" fill="none" fill-rule="evenodd">
        <g id="LOGO" transform="translate(2.000000, 0.000000)" fill="#FFFFFF">
            <path d="M16.1582925,2.58960737 C29.8455384,-3.45141022 45.838531,2.74706221 51.8795486,16.4343081 C57.106497,28.2771224 53.1692971,41.8442054 43.1479868,49.1995566 C42.8372206,49.4274518 42.0170743,50.7183053 42.2358536,52.0188271 L42.2358536,52.0188271 L43.5825069,59.9954343 C34.8465253,56.1971814 32.8700527,53.8477894 32.3929921,53.9433673 C20.2090256,56.3841936 7.5383303,50.1498104 2.31331555,38.3108634 C-3.72770204,24.6236175 2.47077039,8.63062496 16.1582925,2.58960737 Z M17.6939745,26.262612 L15.7810362,30.175503 L14.3263745,26.8106653 L11.6490896,26.8106653 L15.3470686,35.6825553 L17.5718779,31.352547 L19.8298357,35.6825553 L23.4408001,26.8106653 L20.8894792,26.8106653 L19.5442071,30.2235682 L17.6939745,26.262612 Z M27.71197,26.5534891 C24.8170107,26.5905048 22.9938494,28.6291307 23.1513042,31.0796253 C23.1692596,33.7165796 25.0421435,35.55963 27.835724,35.4751016 C30.8223938,35.3847723 32.4267758,33.3563671 32.3535731,30.8868122 C32.2784368,28.3401872 30.4215745,26.5189595 27.71197,26.5534891 Z M43.2314931,26.8106653 L40.738458,26.8106653 L40.738458,35.2184779 L43.2314931,35.2184779 L43.2314931,31.7323723 L45.5974593,35.2184779 L48.6007033,35.2184779 L45.5565763,30.4528445 L48.093533,26.8106653 L45.5546427,26.8106653 L43.2314931,29.4291118 L43.2314931,26.8106653 Z M35.1859802,26.7332475 L34.6168669,26.733163 C33.6837443,26.7351334 32.8734504,26.7463022 32.8734504,26.7463022 L32.8734504,26.7463022 L32.8734504,35.2184779 L35.3352707,35.2184779 L35.3352707,32.1685499 L37.1890943,35.2184779 L39.9031186,35.2184779 L38.3854749,32.422135 C38.5788405,32.2138527 38.6904401,32.0779443 38.8177851,31.9588863 C39.8732851,30.9765891 39.9815698,29.7909817 39.4909737,28.525542 C39.0130844,27.2926981 37.9832745,26.8026545 36.7402099,26.756523 C36.3264075,26.7410537 35.7588334,26.7347617 35.1859802,26.7332475 Z M27.7517481,28.6473572 C28.8456449,28.6498484 29.805567,29.7622531 29.8050148,31.0254829 C29.8041858,32.2923039 28.8348717,33.3911729 27.7326878,33.3757037 C26.6418295,33.3602344 25.6482066,32.223521 25.6595323,31.004489 C25.670858,29.7694352 26.6689007,28.6445999 27.7517481,28.6473572 Z M10.8137502,31.2732671 L4.54124637,31.2887364 L4.54124637,32.1503183 L10.8137502,32.1503183 L10.8137502,31.2732671 Z M35.3352707,28.9572997 C35.9637089,28.7517797 36.5258503,28.6987423 36.9484923,29.2103324 C37.256496,29.5832518 37.2462753,30.0672183 36.9429675,30.4379278 C36.5200493,30.9544901 35.9584604,30.8926132 35.3352707,30.6862644 L35.3352707,30.6862644 Z M10.8137502,27.1120394 L7.83067147,27.1120394 L7.80000921,27.7924101 L8.81655979,27.7924101 L8.81655979,30.7597434 L9.82703317,30.7597434 L9.82703317,27.7924101 L10.8137502,27.7924101 L10.8137502,27.1120394 Z M6.43899162,26.7570754 L4.54124637,30.7597434 L5.66608169,30.7597434 L5.88320364,30.3047817 L6.92986401,30.3047817 L7.1511295,30.7597434 L8.3165716,30.7597434 L6.43899162,26.7570754 Z M6.4290471,29.0854735 L6.67655507,29.5920914 L6.1812629,29.5920914 L6.4290471,29.0854735 Z M15.2103315,18.4832376 L13.5487685,21.5118954 L12.4805617,18.8586431 L10.2855859,18.8586431 L13.4123076,26.0786384 L15.0688984,22.5499924 L16.8707895,26.262612 L19.8806632,18.8498036 L17.78679,18.8498036 L16.697313,21.6624443 L15.2103315,18.4832376 Z M37.9727775,18.635444 C36.7833028,18.774391 36.0305581,19.381559 35.8827716,20.3207633 C35.678909,21.6196277 36.0910539,22.3555219 37.3468254,22.9088238 C37.6421223,23.0386549 37.9495736,23.1444535 38.2484616,23.2601967 C38.4780142,23.3491448 38.9691628,23.4253861 38.9691628,23.7958194 C38.9691628,24.2574107 38.5122675,24.2853106 38.3838175,24.277576 C37.745711,24.2391791 37.4716843,24.163214 36.6026441,23.6499665 C36.2871819,23.8858725 35.8736558,24.1955337 35.3877556,24.5593373 C36.3863508,25.8396938 37.8545482,26.2924455 39.3465019,25.866765 C40.4321117,25.5568275 40.9472929,24.9474497 41.0061313,23.9032754 C41.0660746,22.8386597 40.6492336,22.1444772 39.6522958,21.6991838 C39.2470568,21.5182488 38.8788334,21.3641088 38.4130986,21.2121787 C38.1780212,21.135385 37.7216784,21.1270979 37.7813455,20.6657828 C37.8139414,20.4135788 37.9882467,20.3157911 38.3006703,20.2920347 C38.6133701,20.2680021 38.8760711,20.3400999 39.6752235,20.7149529 C40.003945,20.3691047 40.3508981,20.0041962 40.6970225,19.6401164 C39.8506337,18.8638916 38.8893304,18.5285404 37.9727775,18.635444 Z M7.06466745,18.635444 C5.87519278,18.774391 5.12217188,19.381559 4.97493779,20.3207633 C4.7710752,21.6196277 5.18322016,22.3555219 6.43899162,22.9088238 C6.73401228,23.0386549 7.04146358,23.1444535 7.34035155,23.2601967 C7.56990414,23.3491448 8.061329,23.4253861 8.061329,23.7958194 C8.061329,24.2574107 7.60388124,24.2853106 7.47570747,24.277576 C6.83732476,24.2391791 6.56357431,24.163214 5.69453406,23.6499665 C5.37907189,23.8858725 4.96582198,24.1955337 4.47936938,24.5593373 C5.47824082,25.8396938 6.9464382,26.2924455 8.43839193,25.866765 C9.52400165,25.5568275 10.0394591,24.9474497 10.0982975,23.9032754 C10.1582408,22.8386597 9.74139983,22.1444772 8.74390957,21.6991838 C8.339223,21.5182488 7.97072341,21.3641088 7.50471231,21.2121787 C7.26963499,21.135385 6.81329217,21.1270979 6.87323551,20.6657828 C6.90583142,20.4135788 7.0801367,20.3157911 7.39256026,20.2920347 C7.70526006,20.2680021 7.96823728,20.3400999 8.76711345,20.7149529 C9.0961112,20.3691047 9.4427881,20.0041962 9.78918876,19.6401164 C8.94252367,18.8638916 7.9812204,18.5285404 7.06466745,18.635444 Z M29.3232579,18.8067107 C28.2821223,18.7376515 27.2324233,18.7940038 26.0738871,18.7940038 L26.0738871,18.7940038 L26.0738871,25.7629 C27.337117,25.7629 28.5542153,25.9015708 29.7265633,25.7308566 C31.5569069,25.4645645 32.6055009,23.9405673 32.4828518,22.0428221 C32.3660038,20.238721 31.1232154,18.9254924 29.3232579,18.8067107 Z M43.6386658,18.8437264 L41.8514152,18.8437264 L41.9019665,25.7695297 L43.6386658,25.7695297 L43.6386658,23.1922425 L45.9225898,23.1922425 L45.9225898,25.7695297 L47.8435389,25.7695297 L47.8435389,18.8437264 L45.9225898,18.8437264 L45.9225898,21.366595 L43.6386658,21.366595 L43.6386658,18.8437264 Z M25.5816336,18.8437264 L20.4704283,18.8437264 L20.4704283,25.7695297 L25.5816336,25.7695297 L25.5816336,24.1391814 L22.5477273,24.1391814 L22.5477273,23.058544 L24.9228093,23.058544 L24.9228093,21.5491873 L22.5477273,21.5491873 L22.5477273,20.4298768 L25.5816336,20.4298768 L25.5816336,18.8437264 Z M34.9711909,18.8437264 L33.1317316,18.8437264 L33.1919511,25.7695297 L34.9711909,25.7695297 L34.9711909,18.8437264 Z M28.1967652,20.5881603 C28.9995087,20.3414811 29.5735283,20.6323582 29.9967227,21.232344 C30.4226795,21.8361971 30.4864901,22.5093857 30.1179906,23.1742871 C29.7323643,23.870127 29.1760238,24.2615542 28.1967652,24.0516144 L28.1967652,24.0516144 Z" id="Combined-Shape"></path>
        </g>
    </g>
</svg>