<?xml version="1.0" encoding="UTF-8"?>
<svg width="200px" height="60px" viewBox="0 0 200 60" version="1.1" xmlns="http://www.w3.org/2000/svg" xmlns:xlink="http://www.w3.org/1999/xlink">
    <title>client-tg</title>
    <g id="client-tg" stroke="none" stroke-width="1" fill="none" fill-rule="evenodd">
        <path d="M8.675,33.025 C9.60833333,33.025 10.4666667,32.9291667 11.25,32.7375 C12.0333333,32.5458333 12.7083333,32.25 13.275,31.85 C13.8416667,31.45 14.2833333,30.95 14.6,30.35 C14.9166667,29.75 15.075,29.0416667 15.075,28.225 C15.075,27.425 14.9333333,26.7583333 14.65,26.225 C14.3666667,25.6916667 13.9583333,25.2375 13.425,24.8625 C12.8916667,24.4875 12.2458333,24.175 11.4875,23.925 C10.7291667,23.675 9.875,23.45 8.925,23.25 C8.075,23.0666667 7.3375,22.8833333 6.7125,22.7 C6.0875,22.5166667 5.575,22.3 5.175,22.05 C4.775,21.8 4.47916667,21.5041667 4.2875,21.1625 C4.09583333,20.8208333 4,20.3833333 4,19.85 C4,18.8333333 4.35833333,18.0291667 5.075,17.4375 C5.79166667,16.8458333 6.93333333,16.55 8.5,16.55 C9.56666667,16.55 10.5166667,16.725 11.35,17.075 C12.1833333,17.425 12.85,17.8833333 13.35,18.45 L13.35,18.45 L14.2,17.05 C13.45,16.4 12.6125,15.8958333 11.6875,15.5375 C10.7625,15.1791667 9.70833333,15 8.525,15 C7.59166667,15 6.74166667,15.1125 5.975,15.3375 C5.20833333,15.5625 4.54166667,15.8875 3.975,16.3125 C3.40833333,16.7375 2.97083333,17.2708333 2.6625,17.9125 C2.35416667,18.5541667 2.2,19.2833333 2.2,20.1 C2.2,20.8166667 2.32083333,21.4208333 2.5625,21.9125 C2.80416667,22.4041667 3.16666667,22.825 3.65,23.175 C4.13333333,23.525 4.725,23.8166667 5.425,24.05 C6.125,24.2833333 6.94166667,24.5083333 7.875,24.725 C8.75833333,24.925 9.53333333,25.125 10.2,25.325 C10.8666667,25.525 11.425,25.7625 11.875,26.0375 C12.325,26.3125 12.6625,26.6375 12.8875,27.0125 C13.1125,27.3875 13.225,27.85 13.225,28.4 C13.225,29.4333333 12.8291667,30.2041667 12.0375,30.7125 C11.2458333,31.2208333 10.1416667,31.475 8.725,31.475 C8.04166667,31.475 7.39166667,31.4125 6.775,31.2875 C6.15833333,31.1625 5.57916667,30.9875 5.0375,30.7625 C4.49583333,30.5375 4.00416667,30.275 3.5625,29.975 C3.12083333,29.675 2.74166667,29.3583333 2.425,29.025 L2.425,29.025 L1.55,30.45 C3.55,32.1666667 5.925,33.025 8.675,33.025 Z M25.5319737,33.025 C26.215307,33.025 26.9111403,32.9333333 27.6194737,32.75 C28.327807,32.5666667 28.9986403,32.3 29.6319737,31.95 C30.265307,31.6 30.840307,31.1708333 31.3569737,30.6625 C31.8736403,30.1541667 32.2736403,29.5666667 32.5569737,28.9 L32.5569737,28.9 L31.1069737,28.15 C30.8236403,28.7333333 30.4736403,29.2291667 30.0569737,29.6375 C29.640307,30.0458333 29.1861403,30.3875 28.6944737,30.6625 C28.202807,30.9375 27.6944737,31.1375 27.1694737,31.2625 C26.6444737,31.3875 26.1319737,31.45 25.6319737,31.45 C24.6819737,31.45 23.802807,31.2458333 22.9944737,30.8375 C22.1861403,30.4291667 21.4861403,29.8791667 20.8944737,29.1875 C20.302807,28.4958333 19.8361403,27.7 19.4944737,26.8 C19.152807,25.9 18.9819737,24.9583333 18.9819737,23.975 C18.9819737,23.075 19.1236403,22.1875 19.4069737,21.3125 C19.690307,20.4375 20.1111403,19.65 20.6694737,18.95 C21.227807,18.25 21.915307,17.6833333 22.7319737,17.25 C23.5486403,16.8166667 24.490307,16.6 25.5569737,16.6 C26.040307,16.6 26.5319737,16.6541667 27.0319737,16.7625 C27.5319737,16.8708333 28.015307,17.05 28.4819737,17.3 C28.9486403,17.55 29.3861403,17.875 29.7944737,18.275 C30.202807,18.675 30.5486403,19.1666667 30.8319737,19.75 L30.8319737,19.75 L32.2069737,18.9 C31.6736403,17.75 30.8444737,16.8166667 29.7194737,16.1 C28.5944737,15.3833333 27.240307,15.025 25.6569737,15.025 C24.3236403,15.025 23.1319737,15.2875 22.0819737,15.8125 C21.0319737,16.3375 20.1486403,17.0166667 19.4319737,17.85 C18.715307,18.6833333 18.1694737,19.6291667 17.7944737,20.6875 C17.4194737,21.7458333 17.2319737,22.8083333 17.2319737,23.875 C17.2319737,25.0083333 17.4361403,26.1208333 17.8444737,27.2125 C18.252807,28.3041667 18.8236403,29.2791667 19.5569737,30.1375 C20.290307,30.9958333 21.165307,31.6916667 22.1819737,32.225 C23.1986403,32.7583333 24.315307,33.025 25.5319737,33.025 Z M42.7889473,33 C43.9722806,33 45.0722806,32.7541667 46.0889473,32.2625 C47.105614,31.7708333 47.9847806,31.1125 48.7264473,30.2875 C49.468114,29.4625 50.0514473,28.5083333 50.4764473,27.425 C50.9014473,26.3416667 51.1139473,25.2083333 51.1139473,24.025 C51.1139473,22.9083333 50.9139473,21.8125 50.5139473,20.7375 C50.1139473,19.6625 49.5514473,18.7 48.8264473,17.85 C48.1014473,17 47.2264473,16.3125 46.2014473,15.7875 C45.1764473,15.2625 44.0472806,15 42.8139473,15 C41.630614,15 40.530614,15.2458333 39.5139473,15.7375 C38.4972806,16.2291667 37.6139473,16.8916667 36.8639473,17.725 C36.1139473,18.5583333 35.5264473,19.5166667 35.1014473,20.6 C34.6764473,21.6833333 34.4639473,22.8166667 34.4639473,24 C34.4639473,25.1333333 34.6639473,26.2416667 35.0639473,27.325 C35.4639473,28.4083333 36.030614,29.3708333 36.7639473,30.2125 C37.4972806,31.0541667 38.3764473,31.7291667 39.4014473,32.2375 C40.4264473,32.7458333 41.555614,33 42.7889473,33 Z M42.7889473,31.425 C41.805614,31.425 40.9139473,31.2208333 40.1139473,30.8125 C39.3139473,30.4041667 38.6222806,29.8541667 38.0389473,29.1625 C37.455614,28.4708333 37.005614,27.6791667 36.6889473,26.7875 C36.3722806,25.8958333 36.2139473,24.9666667 36.2139473,24 C36.2139473,23.0833333 36.368114,22.1833333 36.6764473,21.3 C36.9847806,20.4166667 37.4222806,19.625 37.9889473,18.925 C38.555614,18.225 39.2472806,17.6625 40.0639473,17.2375 C40.880614,16.8125 41.7889473,16.6 42.7889473,16.6 C43.755614,16.6 44.6389473,16.8041667 45.4389473,17.2125 C46.2389473,17.6208333 46.930614,18.1666667 47.5139473,18.85 C48.0972806,19.5333333 48.5514473,20.3208333 48.8764473,21.2125 C49.2014473,22.1041667 49.3639473,23.0333333 49.3639473,24 C49.3639473,24.9166667 49.2097806,25.8166667 48.9014473,26.7 C48.593114,27.5833333 48.155614,28.375 47.5889473,29.075 C47.0222806,29.775 46.330614,30.3416667 45.5139473,30.775 C44.6972806,31.2083333 43.7889473,31.425 42.7889473,31.425 Z M60.120921,32.875 L60.120921,16.675 L66.445921,16.675 L66.445921,15.125 L52.045921,15.125 L52.045921,16.675 L58.370921,16.675 L58.370921,32.875 L60.120921,32.875 Z M75.6278946,32.875 L75.6278946,16.675 L81.9528946,16.675 L81.9528946,15.125 L67.5528946,15.125 L67.5528946,16.675 L73.8778946,16.675 L73.8778946,32.875 L75.6278946,32.875 Z M90.5598683,33.025 C91.4932016,33.025 92.3515349,32.9291667 93.1348683,32.7375 C93.9182016,32.5458333 94.5932016,32.25 95.1598683,31.85 C95.7265349,31.45 96.1682016,30.95 96.4848683,30.35 C96.8015349,29.75 96.9598683,29.0416667 96.9598683,28.225 C96.9598683,27.425 96.8182016,26.7583333 96.5348683,26.225 C96.2515349,25.6916667 95.8432016,25.2375 95.3098683,24.8625 C94.7765349,24.4875 94.1307016,24.175 93.3723683,23.925 C92.6140349,23.675 91.7598683,23.45 90.8098683,23.25 C89.9598683,23.0666667 89.2223683,22.8833333 88.5973683,22.7 C87.9723683,22.5166667 87.4598683,22.3 87.0598683,22.05 C86.6598683,21.8 86.3640349,21.5041667 86.1723683,21.1625 C85.9807016,20.8208333 85.8848683,20.3833333 85.8848683,19.85 C85.8848683,18.8333333 86.2432016,18.0291667 86.9598683,17.4375 C87.6765349,16.8458333 88.8182016,16.55 90.3848683,16.55 C91.4515349,16.55 92.4015349,16.725 93.2348683,17.075 C94.0682016,17.425 94.7348683,17.8833333 95.2348683,18.45 L95.2348683,18.45 L96.0848683,17.05 C95.3348683,16.4 94.4973683,15.8958333 93.5723683,15.5375 C92.6473683,15.1791667 91.5932016,15 90.4098683,15 C89.4765349,15 88.6265349,15.1125 87.8598683,15.3375 C87.0932016,15.5625 86.4265349,15.8875 85.8598683,16.3125 C85.2932016,16.7375 84.8557016,17.2708333 84.5473683,17.9125 C84.2390349,18.5541667 84.0848683,19.2833333 84.0848683,20.1 C84.0848683,20.8166667 84.2057016,21.4208333 84.4473683,21.9125 C84.6890349,22.4041667 85.0515349,22.825 85.5348683,23.175 C86.0182016,23.525 86.6098683,23.8166667 87.3098683,24.05 C88.0098683,24.2833333 88.8265349,24.5083333 89.7598683,24.725 C90.6432016,24.925 91.4182016,25.125 92.0848683,25.325 C92.7515349,25.525 93.3098683,25.7625 93.7598683,26.0375 C94.2098683,26.3125 94.5473683,26.6375 94.7723683,27.0125 C94.9973683,27.3875 95.1098683,27.85 95.1098683,28.4 C95.1098683,29.4333333 94.7140349,30.2041667 93.9223683,30.7125 C93.1307016,31.2208333 92.0265349,31.475 90.6098683,31.475 C89.9265349,31.475 89.2765349,31.4125 88.6598683,31.2875 C88.0432016,31.1625 87.4640349,30.9875 86.9223683,30.7625 C86.3807016,30.5375 85.8890349,30.275 85.4473683,29.975 C85.0057016,29.675 84.6265349,29.3583333 84.3098683,29.025 L84.3098683,29.025 L83.4348683,30.45 C85.4348683,32.1666667 87.8098683,33.025 90.5598683,33.025 Z M113.098816,32.875 L120.498816,15.125 L118.673816,15.125 L112.348816,30.7 L105.998816,15.125 L104.173816,15.125 L111.573816,32.875 L113.098816,32.875 Z M121.730789,32.875 L124.005789,27.325 L131.980789,27.325 L134.280789,32.875 L136.130789,32.875 L128.755789,15.125 L127.280789,15.125 L119.855789,32.875 L121.730789,32.875 Z M131.580789,25.95 L124.380789,25.95 L128.005789,17.175 L131.580789,25.95 Z M150.937763,32.875 L150.937763,31.325 L140.687763,31.325 L140.687763,15.125 L138.937763,15.125 L138.937763,32.875 L150.937763,32.875 Z M165.769737,32.875 L165.769737,31.325 L155.519737,31.325 L155.519737,15.125 L153.769737,15.125 L153.769737,32.875 L165.769737,32.875 Z M180.52671,32.875 L180.52671,31.325 L170.35171,31.325 L170.35171,24.55 L179.02671,24.55 L179.02671,23.075 L170.35171,23.075 L170.35171,16.675 L180.30171,16.675 L180.30171,15.125 L168.60171,15.125 L168.60171,32.875 L180.52671,32.875 Z M190.858684,32.875 L190.858684,26.275 L197.733684,15.125 L195.833684,15.125 L189.983684,24.675 L184.183684,15.125 L182.258684,15.125 L189.108684,26.225 L189.108684,32.875 L190.858684,32.875 Z M11,54.875 L11,41.375 L16.1,41.375 L16.1,37.125 L1,37.125 L1,41.375 L6.125,41.375 L6.125,54.875 L11,54.875 Z M24.9942308,55.025 C26.3108974,55.025 27.5233974,54.775 28.6317308,54.275 C29.7400641,53.775 30.6942308,53.1125 31.4942308,52.2875 C32.2942308,51.4625 32.9192308,50.5125 33.3692308,49.4375 C33.8192308,48.3625 34.0442308,47.2416667 34.0442308,46.075 C34.0442308,44.9416667 33.8317308,43.8333333 33.4067308,42.75 C32.9817308,41.6666667 32.3775641,40.7 31.5942308,39.85 C30.8108974,39 29.8692308,38.3166667 28.7692308,37.8 C27.6692308,37.2833333 26.4442308,37.025 25.0942308,37.025 C23.7775641,37.025 22.5650641,37.2708333 21.4567308,37.7625 C20.3483974,38.2541667 19.3900641,38.9125 18.5817308,39.7375 C17.7733974,40.5625 17.1442308,41.5166667 16.6942308,42.6 C16.2442308,43.6833333 16.0192308,44.8083333 16.0192308,45.975 C16.0192308,47.125 16.2358974,48.2416667 16.6692308,49.325 C17.1025641,50.4083333 17.7108974,51.3708333 18.4942308,52.2125 C19.2775641,53.0541667 20.2192308,53.7333333 21.3192308,54.25 C22.4192308,54.7666667 23.6442308,55.025 24.9942308,55.025 Z M25.0442308,50.7 C24.3442308,50.7 23.7400641,50.5666667 23.2317308,50.3 C22.7233974,50.0333333 22.3025641,49.6833333 21.9692308,49.25 C21.6358974,48.8166667 21.3858974,48.3208333 21.2192308,47.7625 C21.0525641,47.2041667 20.9692308,46.625 20.9692308,46.025 C20.9692308,45.4416667 21.0483974,44.8708333 21.2067308,44.3125 C21.3650641,43.7541667 21.6108974,43.2541667 21.9442308,42.8125 C22.2775641,42.3708333 22.6983974,42.0166667 23.2067308,41.75 C23.7150641,41.4833333 24.3192308,41.35 25.0192308,41.35 C25.7025641,41.35 26.2983974,41.4791667 26.8067308,41.7375 C27.3150641,41.9958333 27.7400641,42.3375 28.0817308,42.7625 C28.4233974,43.1875 28.6775641,43.6791667 28.8442308,44.2375 C29.0108974,44.7958333 29.0942308,45.375 29.0942308,45.975 C29.0942308,46.5583333 29.0150641,47.1333333 28.8567308,47.7 C28.6983974,48.2666667 28.4567308,48.7708333 28.1317308,49.2125 C27.8067308,49.6541667 27.3858974,50.0125 26.8692308,50.2875 C26.3525641,50.5625 25.7442308,50.7 25.0442308,50.7 Z M43.9634615,54.875 L46.4634615,48.525 L48.9884615,54.875 L53.0384615,54.875 L59.9884615,37.125 L54.6884615,37.125 L50.8634615,49.3 L49.5884615,45.6 L52.5134615,37.125 L48.0384615,37.125 L46.4634615,42.6 L44.9134615,37.125 L40.4384615,37.125 L43.3134615,45.6 L42.0884615,49.3 L38.2384615,37.125 L32.9634615,37.125 L39.9134615,54.875 L43.9634615,54.875 Z M65.4826923,54.875 L65.4826923,46.15 L72.5326923,54.875 L76.4076923,54.875 L76.4076923,37.125 L71.5326923,37.125 L71.5326923,46.15 L64.4076923,37.125 L60.6076923,37.125 L60.6076923,54.875 L65.4826923,54.875 Z M91.5461538,55 C93.1961538,55 94.6544872,54.4666667 95.9211538,53.4 L95.9211538,53.4 L95.9211538,54.875 L99.9461538,54.875 L99.9461538,45.425 L92.6461538,45.425 L92.6461538,48.925 L95.7211538,48.925 C94.6378205,50.0916667 93.3878205,50.675 91.9711538,50.675 C91.3544872,50.675 90.7961538,50.5625 90.2961538,50.3375 C89.7961538,50.1125 89.3669872,49.7958333 89.0086538,49.3875 C88.6503205,48.9791667 88.3711538,48.4916667 88.1711538,47.925 C87.9711538,47.3583333 87.8711538,46.725 87.8711538,46.025 C87.8711538,45.3416667 87.9711538,44.7125 88.1711538,44.1375 C88.3711538,43.5625 88.6461538,43.0666667 88.9961538,42.65 C89.3461538,42.2333333 89.7628205,41.9083333 90.2461538,41.675 C90.7294872,41.4416667 91.2628205,41.325 91.8461538,41.325 C92.6294872,41.325 93.3711538,41.5375 94.0711538,41.9625 C94.7711538,42.3875 95.2961538,42.95 95.6461538,43.65 L95.6461538,43.65 L99.2711538,40.875 C98.9544872,40.275 98.5461538,39.7375 98.0461538,39.2625 C97.5461538,38.7875 96.9836538,38.3791667 96.3586538,38.0375 C95.7336538,37.6958333 95.0544872,37.4375 94.3211538,37.2625 C93.5878205,37.0875 92.8211538,37 92.0211538,37 C90.7378205,37 89.5419872,37.2291667 88.4336538,37.6875 C87.3253205,38.1458333 86.3628205,38.7708333 85.5461538,39.5625 C84.7294872,40.3541667 84.0878205,41.2875 83.6211538,42.3625 C83.1544872,43.4375 82.9211538,44.6 82.9211538,45.85 C82.9211538,47.3 83.1544872,48.5916667 83.6211538,49.725 C84.0878205,50.8583333 84.7128205,51.8166667 85.4961538,52.6 C86.2794872,53.3833333 87.1961538,53.9791667 88.2461538,54.3875 C89.2961538,54.7958333 90.3961538,55 91.5461538,55 Z M106.615385,54.875 L106.615385,49.425 L108.440385,49.425 L111.565385,54.875 L117.065385,54.875 L113.315385,48.35 C114.115385,47.7833333 114.740385,47.0541667 115.190385,46.1625 C115.640385,45.2708333 115.865385,44.3083333 115.865385,43.275 C115.865385,42.525 115.715385,41.7791667 115.415385,41.0375 C115.115385,40.2958333 114.702885,39.6375 114.177885,39.0625 C113.652885,38.4875 113.023718,38.0208333 112.290385,37.6625 C111.557051,37.3041667 110.757051,37.125 109.890385,37.125 L109.890385,37.125 L101.740385,37.125 L101.740385,54.875 L106.615385,54.875 Z M109.690385,45.175 L106.615385,45.175 L106.615385,41.375 L109.565385,41.375 C109.865385,41.375 110.165385,41.5375 110.465385,41.8625 C110.765385,42.1875 110.915385,42.6583333 110.915385,43.275 C110.915385,43.875 110.786218,44.3416667 110.527885,44.675 C110.269551,45.0083333 109.990385,45.175 109.690385,45.175 L109.690385,45.175 Z M130.659615,54.875 L130.659615,50.625 L122.884615,50.625 L122.884615,47.825 L129.334615,47.825 L129.334615,43.875 L122.884615,43.875 L122.884615,41.375 L130.434615,41.375 L130.434615,37.125 L118.009615,37.125 L118.009615,54.875 L130.659615,54.875 Z M144.978846,54.875 L144.978846,50.625 L137.203846,50.625 L137.203846,47.825 L143.653846,47.825 L143.653846,43.875 L137.203846,43.875 L137.203846,41.375 L144.753846,41.375 L144.753846,37.125 L132.328846,37.125 L132.328846,54.875 L144.978846,54.875 Z M151.523077,54.875 L151.523077,46.15 L158.573077,54.875 L162.448077,54.875 L162.448077,37.125 L157.573077,37.125 L157.573077,46.15 L150.448077,37.125 L146.648077,37.125 L146.648077,54.875 L151.523077,54.875 Z" id="SCOTTSVALLEYTOWNGREEN" fill="#FFFFFF" fill-rule="nonzero"></path>
    </g>
</svg>