<?xml version="1.0" encoding="UTF-8"?>
<svg width="200px" height="60px" viewBox="0 0 200 60" version="1.1" xmlns="http://www.w3.org/2000/svg" xmlns:xlink="http://www.w3.org/1999/xlink">
    <title>client-athlytix</title>
    <g id="client-athlytix" stroke="none" stroke-width="1" fill="none" fill-rule="evenodd">
        <path d="M109.862,24 L108.774,25.947 C110.2,26.807 111.288,28.155 111,31.112 L111,51.925 C111.288,55.182 110.125,56.192 108.774,57.128 L109.862,59 C112.526,57.465 113.989,56.005 114,51.925 L114,31.112 C113.989,27.032 112.526,25.535 109.862,24 L109.862,24 Z M103.002,30 L100.379,38.915 L98,30 L95.131,30 L99,43 L94.902,55 L98,55 L100.188,46.047 L102.774,55 L106,55 L102,43 L106,30 L103.002,30 Z M89,51.925 L89,31.112 C89.202,28.155 90.253,26.807 91.677,25.947 L90.59,24 C87.926,25.535 86.501,27.032 86,31.112 L86,51.925 C86.501,56.005 87.926,57.465 90.59,59 L91.716,57.128 C90.365,56.192 89.202,55.182 89,51.925 L89,51.925 Z M78,55 L81,55 L81,30 L78,30 L78,55 Z M65,32 L68,32 L68,55 L71,55 L71,32 L74,32 L74,30 L65,30 L65,32 Z M58,42 L54,42 L54,30 L51,30 L51,41.38 C51,42.827 52.552,44 54,44 L58,44 L58,55 L61,55 L61,30 L58,30 L58,42 Z M46,30 L43,30 L43,55 L50,55 L50,53 L46,53 L46,30 Z M36,42 L32,42 L32,30 L29,30 L29,55 L32,55 L32,44 L36,44 L36,55 L39,55 L39,30 L36,30 L36,42 Z M16,32 L19,32 L19,55 L22,55 L22,32 L25,32 L25,30 L16,30 L16,32 Z M5,42 L9,42 L9,32 L5,32 L5,42 Z M9.342,30 L4.663,30 C3.198,30 2,31.199 2,32.664 L2,55 L5,55 L5,45 L9,45 L9,55 L12,55 L12,32.658 C12,31.196 10.804,30 9.342,30 L9.342,30 Z" id="Logo-Right" fill="#FFD166"></path>
    </g>
</svg>