<?xml version="1.0" encoding="UTF-8"?>
<svg width="200px" height="60px" viewBox="0 0 200 60" version="1.1" xmlns="http://www.w3.org/2000/svg" xmlns:xlink="http://www.w3.org/1999/xlink">
    <title>client-sps</title>
    <g id="client-sps" stroke="none" stroke-width="1" fill="none" fill-rule="evenodd">
        <g id="Group-6" transform="translate(0.000000, 31.000000)" fill="#FFFFFF">
            <path d="M88.3818,14.5507 C88.6668,14.3567 88.9468,14.1477 89.2198,13.9247 L89.4628,13.7177 C89.1888,14.3817 88.9318,15.0037 88.6998,15.5667 C88.6008,15.2477 88.4948,14.9087 88.3818,14.5507 L88.3818,14.5507 Z M119.6058,9.9997 L122.6938,9.9997 C122.0378,11.5477 121.4748,12.8777 121.0008,13.9997 L117.8408,13.9997 C117.9028,13.8517 117.9588,13.7177 118.0088,13.5967 L118.2148,13.1277 C118.9578,11.3957 119.3768,10.4797 119.6058,9.9997 L119.6058,9.9997 Z M200.0198,-0.0003 L196.7428,-0.0003 L193.4658,-0.0003 L183.8168,-0.0003 C182.8008,-0.0003 181.7678,0.1517 180.7468,0.4487 C179.7318,0.7577 178.7688,1.1957 177.8648,1.7587 C177.0448,0.9377 175.6248,-0.0003 173.3878,-0.0003 L159.2648,-0.0003 L159.1368,0.0017 L158.9268,-0.0003 L155.9218,-0.0003 L150.2608,-0.0003 L150.1128,0.0027 L149.8878,-0.0003 L146.8518,-0.0003 L141.6338,-0.0003 L141.3348,-0.0003 L138.3378,-0.0003 L135.3398,-0.0003 L131.6048,-0.0003 L129.1448,-0.0003 L126.6948,-0.0003 L115.6828,-0.0003 C115.0278,-0.0003 114.3788,0.0757 113.7378,0.2277 L113.7888,-0.0003 L111.2938,-0.0003 L108.7988,-0.0003 L93.1958,-0.0003 L91.8918,-0.0003 L90.5878,-0.0003 L90.2898,0.6757 C89.5638,0.2977 88.6058,-0.0003 87.3898,-0.0003 L73.6288,-0.0003 C72.2518,-0.0003 71.0258,0.6297 70.2568,1.6897 C69.1068,0.6057 67.5438,-0.0003 65.8038,-0.0003 L57.5698,-0.0003 C55.5888,-0.0003 53.6568,0.7057 51.8038,2.1037 C51.7198,2.0027 51.6308,1.9047 51.5388,1.8077 C50.7358,0.9797 49.3058,-0.0003 47.0148,-0.0003 L32.8918,-0.0003 L32.7598,0.0017 L32.5348,-0.0003 L29.1638,-0.0003 L19.5148,-0.0003 C18.4988,-0.0003 17.4658,0.1517 16.4438,0.4487 C14.9088,0.9147 13.4918,1.6797 12.2128,2.7287 C10.3758,4.2797 9.3048,6.1257 9.0088,8.2357 C8.7418,10.1397 9.1778,12.0297 10.3048,13.8517 L10.3988,13.9997 L10.1108,13.9997 L9.1658,13.9997 L8.2208,13.9997 L7.6208,14.7297 L7.0208,15.4587 L5.3768,17.4587 L2.6878,20.7297 L-0.0002,23.9997 L4.2328,23.9997 L8.4658,23.9997 L17.7098,23.9997 C18.5208,23.9997 19.2998,23.9487 20.0518,23.8447 L19.9868,23.9997 L22.9918,23.9997 L25.9978,23.9997 L31.7088,23.9997 C33.3808,23.9997 34.8838,23.0207 35.5388,21.5047 L37.4468,16.9997 L42.5288,16.9997 C43.0468,16.9997 43.5638,16.9557 44.0738,16.8687 C44.0558,18.5057 44.4178,19.9017 45.1668,21.1057 C46.3298,22.9487 48.2958,23.9997 50.5678,23.9997 L58.8018,23.9997 C59.4878,23.9997 60.1618,23.9177 60.8258,23.7537 L60.7228,23.9997 L63.7288,23.9997 L66.7348,23.9997 L72.3108,23.9997 C73.8778,23.9997 75.2678,23.1687 75.9908,21.8157 L76.2098,22.5627 L76.6318,23.9997 L78.1298,23.9997 L79.6278,23.9997 L85.8018,23.9997 L86.8168,23.9997 L87.8308,23.9997 L87.8438,23.9827 L88.2208,23.9847 L91.1818,23.9997 C91.1818,23.9997 93.9688,24.0147 95.8308,24.0147 C98.0998,24.0147 100.0588,24.0147 101.1178,21.6167 L102.3448,18.6537 C102.5158,19.5877 102.8388,20.4257 103.3128,21.1607 C104.7748,23.4737 107.2798,23.8387 108.1028,23.9577 L108.2518,23.9797 L108.3928,23.9997 L108.5358,23.9997 L108.6798,23.9997 L119.8058,23.9997 L122.8118,23.9997 L128.4058,23.9997 L131.1808,23.9997 L134.2028,23.9997 L139.9748,23.9997 L140.3778,23.9997 L143.3828,23.9997 L149.0418,23.9997 L149.1608,23.9977 L149.3658,23.9997 L152.3708,23.9997 L158.0818,23.9997 C159.8028,23.9997 161.3228,22.9817 161.9538,21.4047 L163.8198,16.9997 L168.9028,16.9997 C169.2508,16.9997 169.6248,16.9807 170.0178,16.9337 L169.3818,18.1717 L167.8838,21.0857 L166.3848,23.9997 L169.6628,23.9997 L172.9388,23.9997 L182.0118,23.9997 C184.0998,23.9997 185.9708,23.6607 187.7308,22.9627 C191.9728,21.2937 193.0028,18.2187 193.2378,16.5337 C193.5218,14.5107 193.0088,12.3967 191.7138,10.2517 L191.5578,9.9997 L192.4378,9.9997 L193.6588,9.9997 L194.8798,9.9997 L195.4368,8.9147 L195.9958,7.8287 L197.0238,5.8277 L198.5208,2.9137 L200.0198,-0.0003 Z M38.6628,8.9997 L39.3688,8.9997 C39.6558,8.8797 39.9458,8.7447 40.0518,8.6787 C40.2958,8.5147 40.4568,8.3227 40.5638,8.0647 L40.5868,7.9997 L39.0868,7.9997 L38.6628,8.9997 L38.6628,8.9997 Z M56.7608,16.0057 C56.7628,16.0047 57.0128,15.9047 57.4368,15.2907 C57.5718,15.0937 57.6838,14.9487 57.7858,14.8177 C57.9648,14.5867 58.0628,14.4597 58.4048,13.6627 L59.5138,11.0637 C59.9448,10.0667 60.4408,8.8027 60.7258,7.9997 L60.3858,7.9997 C60.3568,7.9997 60.1868,8.0777 59.9248,8.4477 C59.6538,8.8477 58.6288,10.9837 58.0648,12.3197 L56.9858,14.8867 C56.7298,15.5007 56.6038,15.8097 56.5358,16.0047 L56.7608,16.0057 L56.7608,16.0057 Z M79.2658,8.9997 L79.9668,8.9997 C80.2548,8.8797 80.5458,8.7447 80.6508,8.6787 C80.8708,8.5297 81.0238,8.3607 81.1268,8.1467 L81.1378,8.0937 L81.1578,7.9997 L79.6888,7.9997 L79.2658,8.9997 L79.2658,8.9997 Z M116.3768,12.3387 L116.3608,12.3317 C116.1968,12.7607 115.8828,13.4977 115.2798,14.9127 C114.9978,15.5697 114.9078,15.7987 114.8648,15.9997 L121.0908,15.9997 L122.3268,15.9997 C123.1158,14.1327 124.2358,11.4867 125.7138,7.9997 L118.6918,7.9997 C118.5748,7.9997 118.3668,8.1717 118.1878,8.4047 C117.9618,8.7417 117.3528,10.0657 116.3768,12.3387 L116.3768,12.3387 Z M165.0368,8.9997 L165.7408,8.9997 C166.0118,8.8857 166.3108,8.7497 166.4278,8.6737 C166.6688,8.5137 166.8288,8.3227 166.9348,8.0667 L166.9548,7.9997 L165.4608,7.9997 L165.0368,8.9997 L165.0368,8.9997 Z M26.6488,13.3117 C27.2868,11.8037 28.0498,10.0007 28.9488,7.8827 L28.1348,7.8827 L23.6468,7.8827 L25.7008,11.2887 C26.1148,11.9757 26.4308,12.6507 26.6488,13.3117 L26.6488,13.3117 Z M196.7428,1.9997 L195.2448,4.9137 L194.2168,6.9137 L193.6588,7.9997 L192.4378,7.9997 L187.9838,7.9997 L190.0018,11.2867 C191.0538,13.0287 191.4758,14.6997 191.2568,16.2567 C191.0438,17.7857 190.1298,19.8697 186.9938,21.1037 C185.4718,21.7067 183.8428,21.9997 182.0118,21.9997 L172.9388,21.9997 L169.6628,21.9997 L171.1608,19.0857 L172.1888,17.0857 L172.7468,15.9997 L173.9668,15.9997 L178.3358,15.9997 L176.3098,12.8017 C176.0018,12.3027 175.7588,11.8017 175.5838,11.2977 L175.4488,11.4697 C173.1548,14.3877 170.6228,14.9997 168.9028,14.9997 L163.0148,14.9997 L162.4948,14.9997 L160.0958,20.6617 C159.7658,21.4877 158.9938,21.9997 158.0818,21.9997 L152.3708,21.9997 L149.3658,21.9997 L149.3758,21.9757 C149.2668,21.9907 149.1558,21.9997 149.0418,21.9997 L143.3828,21.9997 L140.3778,21.9997 L139.9748,21.9997 L134.2028,21.9997 L131.1808,21.9997 L132.3608,19.2187 L134.1528,14.9997 L132.8198,14.9997 L130.3938,20.6977 L130.3798,20.7327 L130.3638,20.7647 C130.0068,21.5267 129.2558,21.9997 128.4058,21.9997 L122.8118,21.9997 L119.8058,21.9997 L108.6798,21.9997 L108.5358,21.9997 L108.3928,21.9797 C107.6688,21.8737 105.9738,21.6277 104.9938,20.0767 C104.2858,18.9797 104.0508,17.4907 104.2938,15.6547 C104.4768,14.2667 104.8788,12.8657 105.5218,11.3717 C106.0498,10.1507 106.6428,9.0247 107.2958,7.9997 L104.5898,7.9997 L99.2888,20.8087 C98.7558,22.0147 98.0188,22.0147 95.8308,22.0147 C93.9728,22.0147 91.1928,21.9997 91.1928,21.9997 L88.2318,21.9847 L89.3518,19.2427 C89.3788,19.1777 91.7258,13.4387 94.0088,7.9997 L92.1738,7.9997 L90.9668,8.0067 C90.8958,8.2227 90.8128,8.4347 90.7208,8.6437 C90.0578,10.1507 89.1308,11.4037 87.9538,12.3757 C87.3318,12.8847 86.6748,13.3017 85.9888,13.6217 C88.0938,20.2527 88.0558,20.3067 87.4168,21.1807 L86.8168,21.9997 L85.8018,21.9997 L79.6278,21.9997 L78.1298,21.9997 L77.7078,20.5627 C77.6218,20.2677 76.9238,17.8877 76.3408,15.9047 L74.3108,20.6967 L74.2958,20.7337 L74.2798,20.7687 C73.9228,21.5287 73.1688,21.9997 72.3108,21.9997 L66.7348,21.9997 L63.7288,21.9997 L64.8898,19.2277 C64.9528,19.0767 65.0328,18.8867 65.1308,18.6547 L64.8888,18.9087 C62.8638,20.9887 60.8728,21.9997 58.8018,21.9997 L50.5678,21.9997 C48.9738,21.9997 47.6608,21.3117 46.8648,20.0497 C46.1548,18.9067 45.9258,17.4697 46.1658,15.6547 C46.2438,15.0617 46.3708,14.4477 46.5488,13.8067 C45.0598,14.7497 43.6288,14.9997 42.5288,14.9997 L36.6418,14.9997 L36.1218,14.9997 L33.7028,20.7117 C33.3598,21.5067 32.5948,21.9997 31.7088,21.9997 L25.9978,21.9997 L22.9918,21.9997 L23.5228,20.7327 C23.2638,20.8637 22.9858,20.9887 22.6888,21.1067 C21.1658,21.7077 19.5378,21.9997 17.7098,21.9997 L8.4658,21.9997 L4.2328,21.9997 L6.9218,18.7297 L8.5658,16.7297 L9.1658,15.9997 L10.1108,15.9997 L14.0328,15.9997 L12.0058,12.7997 C11.1308,11.3847 10.7888,9.9427 10.9898,8.5137 C11.2148,6.9057 12.0458,5.4867 13.4798,4.2757 C14.5548,3.3947 15.7338,2.7547 17.0038,2.3687 C17.8438,2.1237 18.6888,1.9997 19.5148,1.9997 L29.1638,1.9997 L32.5348,1.9997 L32.5188,2.0297 C32.6398,2.0097 32.7638,1.9997 32.8918,1.9997 L47.0148,1.9997 C48.6048,1.9997 49.5628,2.6427 50.0948,3.1927 C50.6778,3.7997 51.0278,4.5437 51.1418,5.4147 C51.2508,5.2957 51.3608,5.1797 51.4718,5.0647 C53.4588,3.0307 55.5098,1.9997 57.5698,1.9997 L65.8038,1.9997 C67.3888,1.9997 68.7018,2.6707 69.4908,3.8717 C69.9598,4.5707 70.2308,5.4257 70.3018,6.4297 C70.7238,5.4367 71.1678,4.3887 71.6348,3.2887 C71.9788,2.4937 72.7418,1.9997 73.6288,1.9997 L87.3898,1.9997 C88.9248,1.9997 89.8428,2.6567 90.3128,3.1757 C90.5788,3.4567 90.7938,3.7697 90.9548,4.1127 C91.0318,3.9557 91.1158,3.7717 91.2068,3.5577 L91.3658,3.1937 L91.8918,1.9997 L93.1958,1.9997 L108.7988,1.9997 L111.2938,1.9997 L110.8718,3.8947 C112.4458,2.6217 114.0308,1.9997 115.6828,1.9997 L126.6948,1.9997 L129.1448,1.9997 L129.1308,2.0707 C129.3088,2.0247 129.4968,1.9997 129.6898,1.9997 L135.3398,1.9997 L138.3378,1.9997 L137.1868,4.7677 C136.9498,5.3377 136.3958,6.6557 135.4018,8.9997 L137.2268,8.9997 L139.8058,3.1887 L140.3338,1.9997 L141.6338,1.9997 L146.8518,1.9997 L149.8878,1.9997 L149.8748,2.0327 C149.9998,2.0107 150.1298,1.9997 150.2608,1.9997 L155.9218,1.9997 L158.9268,1.9997 L158.9168,2.0267 C159.0298,2.0087 159.1458,1.9997 159.2648,1.9997 L173.3878,1.9997 C174.9758,1.9997 175.9338,2.6427 176.4698,3.1927 C176.8778,3.6177 177.1708,4.1107 177.3488,4.6647 C177.4878,4.5317 177.6318,4.4027 177.7848,4.2737 C178.8578,3.3937 180.0368,2.7547 181.3068,2.3687 C182.1468,2.1237 182.9918,1.9997 183.8168,1.9997 L193.4658,1.9997 L196.7428,1.9997 L196.7428,1.9997 Z" id="Fill-1"></path>
            <path d="M20.106,5.8828 L28.135,5.8828 L29.164,3.9998 L19.515,3.9998 C18.879,3.9998 18.223,4.0978 17.564,4.2888 C16.568,4.5918 15.62,5.1078 14.749,5.8218 C13.71,6.6988 13.127,7.6708 12.97,8.7918 C12.835,9.7588 13.076,10.7268 13.707,11.7478 L17.667,17.9998 L10.11,17.9998 L8.466,19.9998 L17.71,19.9998 C19.282,19.9998 20.671,19.7528 21.954,19.2458 C23.779,18.5268 24.768,17.4578 24.976,15.9798 C25.128,14.8908 24.796,13.6608 23.989,12.3218 L20.106,5.8828 Z M62.925,7.6118 C62.846,8.2078 61.835,10.7318 61.35,11.8568 C61.35,11.8568 60.252,14.4308 60.251,14.4318 C59.649,15.8328 59.525,15.7848 59.083,16.4268 C58.351,17.4858 57.605,17.9998 56.8,17.9998 L55.44,17.9998 C54.376,17.9998 54.356,16.9468 54.439,16.3188 C54.526,15.6548 54.482,15.6988 55.139,14.1188 L56.221,11.5448 C56.733,10.3298 57.905,7.8278 58.297,7.2858 C58.901,6.4318 59.604,5.9998 60.386,5.9998 L61.745,5.9998 C62.958,5.9998 63.005,7.0088 62.925,7.6118 L62.925,7.6118 Z M68.25,8.0108 C68.425,6.6798 68.285,5.6638 67.831,4.9868 C67.401,4.3328 66.719,3.9998 65.804,3.9998 L57.57,3.9998 C56.069,3.9998 54.498,4.8288 52.903,6.4618 C51.432,7.9778 50.203,9.8958 49.248,12.1598 C48.656,13.5668 48.296,14.7958 48.148,15.9168 C47.972,17.2538 48.108,18.2608 48.564,18.9938 C48.985,19.6608 49.659,19.9998 50.568,19.9998 L58.802,19.9998 C60.305,19.9998 61.827,19.1868 63.456,17.5148 C64.972,15.9468 66.206,14.0388 67.126,11.8368 C67.72,10.4448 68.098,9.1568 68.25,8.0108 L68.25,8.0108 Z M48.651,4.5748 C48.281,4.1938 47.73,3.9998 47.015,3.9998 L32.892,3.9998 C32.769,3.9998 32.748,4.0488 32.734,4.0828 C28.752,13.4588 26.541,18.7028 25.998,19.9998 L31.709,19.9998 C31.833,19.9998 31.854,19.9498 31.867,19.9178 L37.762,5.9998 L41.304,5.9998 C41.304,5.9998 43.018,5.9998 42.606,8.1248 C42.56,8.3638 42.51,8.5958 42.408,8.8398 C42.155,9.4498 41.739,9.9548 41.166,10.3398 C40.683,10.6488 39.754,10.9998 39.754,10.9998 L37.673,10.9998 L36.642,12.9998 L42.529,12.9998 C44.386,12.9998 46.058,12.0698 47.503,10.2338 C48.428,9.0768 48.981,7.8608 49.145,6.6178 C49.266,5.7038 49.109,5.0538 48.651,4.5748 L48.651,4.5748 Z M87.39,3.9998 L73.628,3.9998 C73.506,3.9998 73.485,4.0498 73.471,4.0828 C69.489,13.4618 67.278,18.7028 66.735,19.9998 L72.311,19.9998 C72.431,19.9998 72.455,19.9478 72.47,19.9178 L78.364,5.9998 L81.903,5.9998 C81.903,5.9998 84.128,5.9998 83.205,8.1248 C83.102,8.3618 83.093,8.6118 83.006,8.8398 C82.754,9.4498 82.338,9.9548 81.764,10.3398 C81.281,10.6488 80.353,10.9998 80.353,10.9998 L78.303,10.9998 C78.19,10.9998 78.171,11.0458 78.158,11.0758 C78.158,11.0758 77.559,12.4858 77.478,12.6758 C77.704,13.4438 79.486,19.5178 79.627,19.9998 L85.802,19.9998 C85.847,19.9998 84.507,15.5608 83.649,12.8618 L83.484,12.3428 L83.904,12.2438 C84.889,12.0108 85.826,11.5328 86.688,10.8278 C87.613,10.0638 88.354,9.0588 88.89,7.8388 C89.093,7.3798 89.229,6.9028 89.293,6.4178 C89.403,5.5848 89.263,4.9758 88.86,4.5518 C88.524,4.1808 88.043,3.9998 87.39,3.9998 L87.39,3.9998 Z M141.634,3.9998 L138.528,10.9998 L132.38,10.9998 L132.649,10.3678 C134.226,6.6568 135.04,4.7248 135.34,3.9998 L129.69,3.9998 C129.583,3.9998 129.563,4.0498 129.549,4.0828 C125.566,13.4618 123.356,18.7028 122.812,19.9998 L128.406,19.9998 C128.514,19.9998 128.539,19.9458 128.553,19.9148 L131.498,12.9998 L137.174,12.9998 L134.203,19.9998 L139.975,19.9998 L146.852,3.9998 L141.634,3.9998 Z M108.799,3.9998 L93.196,3.9998 C93.071,4.2838 93.049,4.3348 93.035,4.3668 C92.56,5.4938 92.174,5.9998 92.174,5.9998 L97.023,5.9998 L96.768,6.6028 C94.222,12.6158 91.204,19.9998 91.204,19.9998 C91.204,19.9998 97.445,20.0338 97.46,19.9998 L103.253,5.9998 L107.774,5.9998 C107.774,5.9998 108.659,4.6248 108.799,3.9998 L108.799,3.9998 Z M112.81,16.2498 C112.906,15.5288 112.86,15.4748 113.443,14.1208 L114.539,11.5508 C115.085,10.2788 116.161,7.7708 116.575,7.2238 C117.196,6.4118 117.908,5.9998 118.691,5.9998 L126.287,5.9998 L126.695,3.9998 L115.683,3.9998 C114.154,3.9998 112.633,4.8058 111.031,6.4618 C109.589,7.9438 108.353,9.8618 107.357,12.1648 C106.789,13.4858 106.436,14.7118 106.276,15.9168 C106.098,17.2708 106.231,18.3058 106.675,18.9938 C107.097,19.6608 107.807,19.8728 108.68,19.9998 L120.106,19.9998 L121.091,17.9998 L113.879,17.9998 C112.749,17.9998 112.724,16.9038 112.81,16.2498 L112.81,16.2498 Z M183.817,3.9998 C183.182,3.9998 182.526,4.0978 181.867,4.2888 C180.871,4.5918 179.922,5.1078 179.052,5.8208 C178.012,6.6988 177.43,7.6708 177.273,8.7908 C177.137,9.7588 177.377,10.7268 178.01,11.7478 L181.969,17.9998 L173.967,17.9998 L172.939,19.9998 L182.012,19.9998 C183.585,19.9998 184.974,19.7528 186.256,19.2448 C188.082,18.5268 189.07,17.4578 189.277,15.9798 C189.43,14.8898 189.099,13.6598 188.291,12.3208 L184.409,5.9998 L192.438,5.9998 L193.466,3.9998 L183.817,3.9998 Z M150.261,3.9998 C150.154,3.9998 150.134,4.0498 150.12,4.0828 C146.138,13.4598 143.927,18.7028 143.383,19.9998 L149.042,19.9998 C149.148,19.9998 149.169,19.9498 149.184,19.9178 C153.166,10.5398 155.377,5.2988 155.921,3.9998 L150.261,3.9998 Z M173.877,10.2338 C174.802,9.0778 175.354,7.8618 175.519,6.6178 C175.64,5.7038 175.483,5.0538 175.025,4.5748 C174.654,4.1938 174.103,3.9998 173.388,3.9998 L159.265,3.9998 C159.142,3.9998 159.121,4.0498 159.108,4.0828 C155.124,13.4648 152.913,18.7028 152.371,19.9998 L158.082,19.9998 C158.206,19.9998 158.227,19.9498 158.24,19.9178 L164.135,5.9998 L167.676,5.9998 C167.676,5.9998 169.55,5.8828 168.978,8.1238 C168.917,8.3638 168.881,8.6008 168.779,8.8398 C168.526,9.4508 168.111,9.9558 167.538,10.3378 C167.055,10.6488 166.127,10.9998 166.127,10.9998 L164.047,10.9998 L163.015,12.9998 L168.903,12.9998 C170.758,12.9998 172.432,12.0698 173.877,10.2338 L173.877,10.2338 Z" id="Fill-4"></path>
        </g>
    </g>
</svg>