<?xml version="1.0" encoding="UTF-8"?>
<svg width="120px" height="60px" viewBox="0 0 120 60" version="1.1" xmlns="http://www.w3.org/2000/svg" xmlns:xlink="http://www.w3.org/1999/xlink">
    <title>client-wr</title>
    <g id="client-wr" stroke="none" stroke-width="1" fill="none" fill-rule="evenodd">
        <g id="Group">
            <path d="M54,1 L54,54 L1,54 L1,1 L54,1 Z" id="Path" stroke="#FFFFFF" stroke-width="2"></path>
            <text id="NAILS" font-family="FuturaStd-Book, Futura Std" font-size="6" font-weight="300" letter-spacing="4.468" fill="#FFFFFF">
                <tspan x="11.6" y="42">NAIL</tspan>
                <tspan x="42.354" y="42" letter-spacing="-0.5">S</tspan>
            </text>
            <path d="M39.9166667,13 C42.8954736,13 46.5,14.5 46.5,18.5 C46.5,22.5 42.4349817,23.2873239 39.9166667,23.5416667 L40.360876,23.5419651 C43.6597222,23.5488281 44.5381944,23.7135417 45.4166667,27.6666667 C45.5625383,28.3230888 45.6410845,29.0182629 45.7206718,29.6880806 L45.7608687,30.0205796 C46.0200076,32.1092649 46.4038462,33.8365385 49.0833333,33.1666667 L49.0833333,34.0833333 L46.3333333,34.0833333 L46.3333333,34.0833333 C43.2120617,34.0833333 42.2083333,32.1729877 42.2083333,28.5833333 C42.2083333,24.993679 41.6866824,23.8515258 38.0833333,23.5416667 L36,23.5 L36,33 L39,33 L39,34 L30,34 L30,33 L33,33 L33.0000104,14.0002466 C31.9959413,14.0114198 31.5456024,14.1587951 30.75,15.75 L23.4166667,35 L19.75,24.9166667 L16.0833333,35 L8,14 L6,14 L6,13 L13,13 L13,14 L11.5,14 L17,30.4166667 L19.2916667,24 L16,14 L14,14 L14,13 L26,13 L26,14 C24.6666667,14 23.8055556,14.2777778 23.4166667,14.8333333 L21.5833333,20.3333333 L24.3333333,30.4166667 L29.8333333,15.75 C30.1221001,15.1254579 30.3443223,14.5421245 30.5,14 L28,14 L28,13 L39.9166667,13 Z M19.5,14 L21.125,19.4166667 L23,14 L19.5,14 Z M36,14 L36,23 L38.0833333,23.0833333 C41.4483122,23.0833333 42.5,20.5 42.5,18.5 C42.5,16.5 42.664557,14 38,14 L36,14 Z" id="WR-Copy" fill="#FFFFFF"></path>
        </g>
    </g>
</svg>