<?xml version="1.0" encoding="UTF-8"?>
<svg width="120px" height="60px" viewBox="0 0 120 60" version="1.1" xmlns="http://www.w3.org/2000/svg" xmlns:xlink="http://www.w3.org/1999/xlink">
    <title>client-tg</title>
    <g id="client-tg" stroke="none" stroke-width="1" fill="none" fill-rule="evenodd">
        <path d="M4.755,42.09 C5.315,42.09 5.83,42.0325 6.3,41.9175 C6.77,41.8025 7.175,41.625 7.515,41.385 C7.855,41.145 8.12,40.845 8.31,40.485 C8.5,40.125 8.595,39.7 8.595,39.21 C8.595,38.73 8.51,38.33 8.34,38.01 C8.17,37.69 7.925,37.4175 7.605,37.1925 C7.285,36.9675 6.8975,36.78 6.4425,36.63 C5.9875,36.48 5.475,36.345 4.905,36.225 C4.395,36.115 3.9525,36.005 3.5775,35.895 C3.2025,35.785 2.895,35.655 2.655,35.505 C2.415,35.355 2.2375,35.1775 2.1225,34.9725 C2.0075,34.7675 1.95,34.505 1.95,34.185 C1.95,33.575 2.165,33.0925 2.595,32.7375 C3.025,32.3825 3.71,32.205 4.65,32.205 C5.29,32.205 5.86,32.31 6.36,32.52 C6.86,32.73 7.26,33.005 7.56,33.345 L7.56,33.345 L8.07,32.505 C7.62,32.115 7.1175,31.8125 6.5625,31.5975 C6.0075,31.3825 5.375,31.275 4.665,31.275 C4.105,31.275 3.595,31.3425 3.135,31.4775 C2.675,31.6125 2.275,31.8075 1.935,32.0625 C1.595,32.3175 1.3325,32.6375 1.1475,33.0225 C0.9625,33.4075 0.87,33.845 0.87,34.335 C0.87,34.765 0.9425,35.1275 1.0875,35.4225 C1.2325,35.7175 1.45,35.97 1.74,36.18 C2.03,36.39 2.385,36.565 2.805,36.705 C3.225,36.845 3.715,36.98 4.275,37.11 C4.805,37.23 5.27,37.35 5.67,37.47 C6.07,37.59 6.405,37.7325 6.675,37.8975 C6.945,38.0625 7.1475,38.2575 7.2825,38.4825 C7.4175,38.7075 7.485,38.985 7.485,39.315 C7.485,39.935 7.2475,40.3975 6.7725,40.7025 C6.2975,41.0075 5.635,41.16 4.785,41.16 C4.375,41.16 3.985,41.1225 3.615,41.0475 C3.245,40.9725 2.8975,40.8675 2.5725,40.7325 C2.2475,40.5975 1.9525,40.44 1.6875,40.26 C1.4225,40.08 1.195,39.89 1.005,39.69 L1.005,39.69 L0.48,40.545 C1.68,41.575 3.105,42.09 4.755,42.09 Z M14.8691842,42.09 C15.2791842,42.09 15.6966842,42.035 16.1216842,41.925 C16.5466842,41.815 16.9491842,41.655 17.3291842,41.445 C17.7091842,41.235 18.0541842,40.9775 18.3641842,40.6725 C18.6741842,40.3675 18.9141842,40.015 19.0841842,39.615 L19.0841842,39.615 L18.2141842,39.165 C18.0441842,39.515 17.8341842,39.8125 17.5841842,40.0575 C17.3341842,40.3025 17.0616842,40.5075 16.7666842,40.6725 C16.4716842,40.8375 16.1666842,40.9575 15.8516842,41.0325 C15.5366842,41.1075 15.2291842,41.145 14.9291842,41.145 C14.3591842,41.145 13.8316842,41.0225 13.3466842,40.7775 C12.8616842,40.5325 12.4416842,40.2025 12.0866842,39.7875 C11.7316842,39.3725 11.4516842,38.895 11.2466842,38.355 C11.0416842,37.815 10.9391842,37.25 10.9391842,36.66 C10.9391842,36.12 11.0241842,35.5875 11.1941842,35.0625 C11.3641842,34.5375 11.6166842,34.065 11.9516842,33.645 C12.2866842,33.225 12.6991842,32.885 13.1891842,32.625 C13.6791842,32.365 14.2441842,32.235 14.8841842,32.235 C15.1741842,32.235 15.4691842,32.2675 15.7691842,32.3325 C16.0691842,32.3975 16.3591842,32.505 16.6391842,32.655 C16.9191842,32.805 17.1816842,33 17.4266842,33.24 C17.6716842,33.48 17.8791842,33.775 18.0491842,34.125 L18.0491842,34.125 L18.8741842,33.615 C18.5541842,32.925 18.0566842,32.365 17.3816842,31.935 C16.7066842,31.505 15.8941842,31.29 14.9441842,31.29 C14.1441842,31.29 13.4291842,31.4475 12.7991842,31.7625 C12.1691842,32.0775 11.6391842,32.485 11.2091842,32.985 C10.7791842,33.485 10.4516842,34.0525 10.2266842,34.6875 C10.0016842,35.3225 9.88918419,35.96 9.88918419,36.6 C9.88918419,37.28 10.0116842,37.9475 10.2566842,38.6025 C10.5016842,39.2575 10.8441842,39.8425 11.2841842,40.3575 C11.7241842,40.8725 12.2491842,41.29 12.8591842,41.61 C13.4691842,41.93 14.1391842,42.09 14.8691842,42.09 Z M25.2233684,42.075 C25.9333684,42.075 26.5933684,41.9275 27.2033684,41.6325 C27.8133684,41.3375 28.3408684,40.9425 28.7858684,40.4475 C29.2308684,39.9525 29.5808684,39.38 29.8358684,38.73 C30.0908684,38.08 30.2183684,37.4 30.2183684,36.69 C30.2183684,36.02 30.0983684,35.3625 29.8583684,34.7175 C29.6183684,34.0725 29.2808684,33.495 28.8458684,32.985 C28.4108684,32.475 27.8858684,32.0625 27.2708684,31.7475 C26.6558684,31.4325 25.9783684,31.275 25.2383684,31.275 C24.5283684,31.275 23.8683684,31.4225 23.2583684,31.7175 C22.6483684,32.0125 22.1183684,32.41 21.6683684,32.91 C21.2183684,33.41 20.8658684,33.985 20.6108684,34.635 C20.3558684,35.285 20.2283684,35.965 20.2283684,36.675 C20.2283684,37.355 20.3483684,38.02 20.5883684,38.67 C20.8283684,39.32 21.1683684,39.8975 21.6083684,40.4025 C22.0483684,40.9075 22.5758684,41.3125 23.1908684,41.6175 C23.8058684,41.9225 24.4833684,42.075 25.2233684,42.075 Z M25.2233684,41.13 C24.6333684,41.13 24.0983684,41.0075 23.6183684,40.7625 C23.1383684,40.5175 22.7233684,40.1875 22.3733684,39.7725 C22.0233684,39.3575 21.7533684,38.8825 21.5633684,38.3475 C21.3733684,37.8125 21.2783684,37.255 21.2783684,36.675 C21.2783684,36.125 21.3708684,35.585 21.5558684,35.055 C21.7408684,34.525 22.0033684,34.05 22.3433684,33.63 C22.6833684,33.21 23.0983684,32.8725 23.5883684,32.6175 C24.0783684,32.3625 24.6233684,32.235 25.2233684,32.235 C25.8033684,32.235 26.3333684,32.3575 26.8133684,32.6025 C27.2933684,32.8475 27.7083684,33.175 28.0583684,33.585 C28.4083684,33.995 28.6808684,34.4675 28.8758684,35.0025 C29.0708684,35.5375 29.1683684,36.095 29.1683684,36.675 C29.1683684,37.225 29.0758684,37.765 28.8908684,38.295 C28.7058684,38.825 28.4433684,39.3 28.1033684,39.72 C27.7633684,40.14 27.3483684,40.48 26.8583684,40.74 C26.3683684,41 25.8233684,41.13 25.2233684,41.13 Z M35.6225526,42 L35.6225526,32.28 L39.4175526,32.28 L39.4175526,31.35 L30.7775526,31.35 L30.7775526,32.28 L34.5725526,32.28 L34.5725526,42 L35.6225526,42 Z M44.9267368,42 L44.9267368,32.28 L48.7217368,32.28 L48.7217368,31.35 L40.0817368,31.35 L40.0817368,32.28 L43.8767368,32.28 L43.8767368,42 L44.9267368,42 Z M53.885921,42.09 C54.445921,42.09 54.960921,42.0325 55.430921,41.9175 C55.900921,41.8025 56.305921,41.625 56.645921,41.385 C56.985921,41.145 57.250921,40.845 57.440921,40.485 C57.630921,40.125 57.725921,39.7 57.725921,39.21 C57.725921,38.73 57.640921,38.33 57.470921,38.01 C57.300921,37.69 57.055921,37.4175 56.735921,37.1925 C56.415921,36.9675 56.028421,36.78 55.573421,36.63 C55.118421,36.48 54.605921,36.345 54.035921,36.225 C53.525921,36.115 53.083421,36.005 52.708421,35.895 C52.333421,35.785 52.025921,35.655 51.785921,35.505 C51.545921,35.355 51.368421,35.1775 51.253421,34.9725 C51.138421,34.7675 51.080921,34.505 51.080921,34.185 C51.080921,33.575 51.295921,33.0925 51.725921,32.7375 C52.155921,32.3825 52.840921,32.205 53.780921,32.205 C54.420921,32.205 54.990921,32.31 55.490921,32.52 C55.990921,32.73 56.390921,33.005 56.690921,33.345 L56.690921,33.345 L57.200921,32.505 C56.750921,32.115 56.248421,31.8125 55.693421,31.5975 C55.138421,31.3825 54.505921,31.275 53.795921,31.275 C53.235921,31.275 52.725921,31.3425 52.265921,31.4775 C51.805921,31.6125 51.405921,31.8075 51.065921,32.0625 C50.725921,32.3175 50.463421,32.6375 50.278421,33.0225 C50.093421,33.4075 50.000921,33.845 50.000921,34.335 C50.000921,34.765 50.073421,35.1275 50.218421,35.4225 C50.363421,35.7175 50.580921,35.97 50.870921,36.18 C51.160921,36.39 51.515921,36.565 51.935921,36.705 C52.355921,36.845 52.845921,36.98 53.405921,37.11 C53.935921,37.23 54.400921,37.35 54.800921,37.47 C55.200921,37.59 55.535921,37.7325 55.805921,37.8975 C56.075921,38.0625 56.278421,38.2575 56.413421,38.4825 C56.548421,38.7075 56.615921,38.985 56.615921,39.315 C56.615921,39.935 56.378421,40.3975 55.903421,40.7025 C55.428421,41.0075 54.765921,41.16 53.915921,41.16 C53.505921,41.16 53.115921,41.1225 52.745921,41.0475 C52.375921,40.9725 52.028421,40.8675 51.703421,40.7325 C51.378421,40.5975 51.083421,40.44 50.818421,40.26 C50.553421,40.08 50.325921,39.89 50.135921,39.69 L50.135921,39.69 L49.610921,40.545 C50.810921,41.575 52.235921,42.09 53.885921,42.09 Z M67.4092893,42 L71.8492893,31.35 L70.7542893,31.35 L66.9592893,40.695 L63.1492893,31.35 L62.0542893,31.35 L66.4942893,42 L67.4092893,42 Z M72.5884735,42 L73.9534735,38.67 L78.7384735,38.67 L80.1184735,42 L81.2284735,42 L76.8034735,31.35 L75.9184735,31.35 L71.4634735,42 L72.5884735,42 Z M78.4984735,37.845 L74.1784735,37.845 L76.3534735,32.58 L78.4984735,37.845 Z M90.1126577,42 L90.1126577,41.07 L83.9626577,41.07 L83.9626577,31.35 L82.9126577,31.35 L82.9126577,42 L90.1126577,42 Z M99.0118419,42 L99.0118419,41.07 L92.8618419,41.07 L92.8618419,31.35 L91.8118419,31.35 L91.8118419,42 L99.0118419,42 Z M107.866026,42 L107.866026,41.07 L101.761026,41.07 L101.761026,37.005 L106.966026,37.005 L106.966026,36.12 L101.761026,36.12 L101.761026,32.28 L107.731026,32.28 L107.731026,31.35 L100.711026,31.35 L100.711026,42 L107.866026,42 Z M114.06521,42 L114.06521,38.04 L118.19021,31.35 L117.05021,31.35 L113.54021,37.08 L110.06021,31.35 L108.90521,31.35 L113.01521,38.01 L113.01521,42 L114.06521,42 Z M6.15,55 L6.15,46.9 L9.21,46.9 L9.21,44.35 L0.15,44.35 L0.15,46.9 L3.225,46.9 L3.225,55 L6.15,55 Z M14.5465385,55.09 C15.3365385,55.09 16.0640385,54.94 16.7290385,54.64 C17.3940385,54.34 17.9665385,53.9425 18.4465385,53.4475 C18.9265385,52.9525 19.3015385,52.3825 19.5715385,51.7375 C19.8415385,51.0925 19.9765385,50.42 19.9765385,49.72 C19.9765385,49.04 19.8490385,48.375 19.5940385,47.725 C19.3390385,47.075 18.9765385,46.495 18.5065385,45.985 C18.0365385,45.475 17.4715385,45.065 16.8115385,44.755 C16.1515385,44.445 15.4165385,44.29 14.6065385,44.29 C13.8165385,44.29 13.0890385,44.4375 12.4240385,44.7325 C11.7590385,45.0275 11.1840385,45.4225 10.6990385,45.9175 C10.2140385,46.4125 9.83653846,46.985 9.56653846,47.635 C9.29653846,48.285 9.16153846,48.96 9.16153846,49.66 C9.16153846,50.35 9.29153846,51.02 9.55153846,51.67 C9.81153846,52.32 10.1765385,52.8975 10.6465385,53.4025 C11.1165385,53.9075 11.6815385,54.315 12.3415385,54.625 C13.0015385,54.935 13.7365385,55.09 14.5465385,55.09 Z M14.5765385,52.495 C14.1565385,52.495 13.7940385,52.415 13.4890385,52.255 C13.1840385,52.095 12.9315385,51.885 12.7315385,51.625 C12.5315385,51.365 12.3815385,51.0675 12.2815385,50.7325 C12.1815385,50.3975 12.1315385,50.05 12.1315385,49.69 C12.1315385,49.34 12.1790385,48.9975 12.2740385,48.6625 C12.3690385,48.3275 12.5165385,48.0275 12.7165385,47.7625 C12.9165385,47.4975 13.1690385,47.285 13.4740385,47.125 C13.7790385,46.965 14.1415385,46.885 14.5615385,46.885 C14.9715385,46.885 15.3290385,46.9625 15.6340385,47.1175 C15.9390385,47.2725 16.1940385,47.4775 16.3990385,47.7325 C16.6040385,47.9875 16.7565385,48.2825 16.8565385,48.6175 C16.9565385,48.9525 17.0065385,49.3 17.0065385,49.66 C17.0065385,50.01 16.9590385,50.355 16.8640385,50.695 C16.7690385,51.035 16.6240385,51.3375 16.4290385,51.6025 C16.2340385,51.8675 15.9815385,52.0825 15.6715385,52.2475 C15.3615385,52.4125 14.9965385,52.495 14.5765385,52.495 Z M25.9280769,55 L27.4280769,51.19 L28.9430769,55 L31.3730769,55 L35.5430769,44.35 L32.3630769,44.35 L30.0680769,51.655 L29.3030769,49.435 L31.0580769,44.35 L28.3730769,44.35 L27.4280769,47.635 L26.4980769,44.35 L23.8130769,44.35 L25.5380769,49.435 L24.8030769,51.655 L22.4930769,44.35 L19.3280769,44.35 L23.4980769,55 L25.9280769,55 Z M38.8396154,55 L38.8396154,49.765 L43.0696154,55 L45.3946154,55 L45.3946154,44.35 L42.4696154,44.35 L42.4696154,49.765 L38.1946154,44.35 L35.9146154,44.35 L35.9146154,55 L38.8396154,55 Z M54.4776923,55.075 C55.4676923,55.075 56.3426923,54.755 57.1026923,54.115 L57.1026923,54.115 L57.1026923,55 L59.5176923,55 L59.5176923,49.33 L55.1376923,49.33 L55.1376923,51.43 L56.9826923,51.43 C56.3326923,52.13 55.5826923,52.48 54.7326923,52.48 C54.3626923,52.48 54.0276923,52.4125 53.7276923,52.2775 C53.4276923,52.1425 53.1701923,51.9525 52.9551923,51.7075 C52.7401923,51.4625 52.5726923,51.17 52.4526923,50.83 C52.3326923,50.49 52.2726923,50.11 52.2726923,49.69 C52.2726923,49.28 52.3326923,48.9025 52.4526923,48.5575 C52.5726923,48.2125 52.7376923,47.915 52.9476923,47.665 C53.1576923,47.415 53.4076923,47.22 53.6976923,47.08 C53.9876923,46.94 54.3076923,46.87 54.6576923,46.87 C55.1276923,46.87 55.5726923,46.9975 55.9926923,47.2525 C56.4126923,47.5075 56.7276923,47.845 56.9376923,48.265 L56.9376923,48.265 L59.1126923,46.6 C58.9226923,46.24 58.6776923,45.9175 58.3776923,45.6325 C58.0776923,45.3475 57.7401923,45.1025 57.3651923,44.8975 C56.9901923,44.6925 56.5826923,44.5375 56.1426923,44.4325 C55.7026923,44.3275 55.2426923,44.275 54.7626923,44.275 C53.9926923,44.275 53.2751923,44.4125 52.6101923,44.6875 C51.9451923,44.9625 51.3676923,45.3375 50.8776923,45.8125 C50.3876923,46.2875 50.0026923,46.8475 49.7226923,47.4925 C49.4426923,48.1375 49.3026923,48.835 49.3026923,49.585 C49.3026923,50.455 49.4426923,51.23 49.7226923,51.91 C50.0026923,52.59 50.3776923,53.165 50.8476923,53.635 C51.3176923,54.105 51.8676923,54.4625 52.4976923,54.7075 C53.1276923,54.9525 53.7876923,55.075 54.4776923,55.075 Z M63.5192308,55 L63.5192308,51.73 L64.6142308,51.73 L66.4892308,55 L69.7892308,55 L67.5392308,51.085 C68.0192308,50.745 68.3942308,50.3075 68.6642308,49.7725 C68.9342308,49.2375 69.0692308,48.66 69.0692308,48.04 C69.0692308,47.59 68.9792308,47.1425 68.7992308,46.6975 C68.6192308,46.2525 68.3717308,45.8575 68.0567308,45.5125 C67.7417308,45.1675 67.3642308,44.8875 66.9242308,44.6725 C66.4842308,44.4575 66.0042308,44.35 65.4842308,44.35 L65.4842308,44.35 L60.5942308,44.35 L60.5942308,55 L63.5192308,55 Z M65.3642308,49.18 L63.5192308,49.18 L63.5192308,46.9 L65.2892308,46.9 C65.4692308,46.9 65.6492308,46.9975 65.8292308,47.1925 C66.0092308,47.3875 66.0992308,47.67 66.0992308,48.04 C66.0992308,48.4 66.0217308,48.68 65.8667308,48.88 C65.7117308,49.08 65.5442308,49.18 65.3642308,49.18 L65.3642308,49.18 Z M77.9457692,55 L77.9457692,52.45 L73.2807692,52.45 L73.2807692,50.77 L77.1507692,50.77 L77.1507692,48.4 L73.2807692,48.4 L73.2807692,46.9 L77.8107692,46.9 L77.8107692,44.35 L70.3557692,44.35 L70.3557692,55 L77.9457692,55 Z M86.5373077,55 L86.5373077,52.45 L81.8723077,52.45 L81.8723077,50.77 L85.7423077,50.77 L85.7423077,48.4 L81.8723077,48.4 L81.8723077,46.9 L86.4023077,46.9 L86.4023077,44.35 L78.9473077,44.35 L78.9473077,55 L86.5373077,55 Z M90.4638462,55 L90.4638462,49.765 L94.6938462,55 L97.0188462,55 L97.0188462,44.35 L94.0938462,44.35 L94.0938462,49.765 L89.8188462,44.35 L87.5388462,44.35 L87.5388462,55 L90.4638462,55 Z" id="SCOTTSVALLEYTOWNGREEN" fill="#FFFFFF" fill-rule="nonzero"></path>
    </g>
</svg>