<?xml version="1.0" encoding="UTF-8"?>
<svg width="200px" height="60px" viewBox="0 0 200 60" version="1.1" xmlns="http://www.w3.org/2000/svg" xmlns:xlink="http://www.w3.org/1999/xlink">
    <title>client-hiperwin</title>
    <g id="client-hiperwin" stroke="none" stroke-width="1" fill="none" fill-rule="evenodd">
        <g id="Group-8" transform="translate(2.000000, 30.000000)" fill="#FFD166">
            <path d="M130.124927,8.61504878 C131.178585,9.79017073 131.70761,11.4050488 131.70761,13.461878 L131.70761,22.3835854 L127.317366,22.3835854 L127.317366,14.1306585 C127.317366,13.1172439 127.024683,12.3255366 126.437854,11.7555366 C125.851024,11.1855366 125.07322,10.899439 124.097854,10.899439 C123.066878,10.899439 122.246634,11.1979756 121.640049,11.7972439 C121.033463,12.3935854 120.732,13.244561 120.732,14.3472439 L120.732,22.3835854 L116.341756,22.3835854 L116.341756,7.01773171 L120.732,7.01773171 L120.732,9.8267561 C121.179073,8.90846341 121.845659,8.18407317 122.733951,7.65212195 C123.620049,7.11870732 124.659805,6.85382927 125.855415,6.85382927 C127.647366,6.85382927 129.070537,7.44139024 130.124927,8.61504878 L130.124927,8.61504878 Z M107.561268,22.3835854 L111.951512,22.3835854 L111.951512,7.01773171 L107.561268,7.01773171 L107.561268,22.3835854 Z M104.551756,7.01773171 L100.612976,22.3835854 L95.3541951,22.3835854 L92.5729756,12.0848049 L89.7646829,22.3835854 L84.5029756,22.3835854 L80.567122,7.01773171 L85.2749268,7.01773171 L87.3141951,18.0877317 L90.1773659,7.01773171 L95.1888293,7.01773171 L98.1361463,18.1148049 L100.17322,7.01773171 L104.551756,7.01773171 Z M75.372,7.71358537 C76.2690732,7.13407317 77.2422439,6.84504878 78.2929756,6.84504878 L78.2929756,12.1396829 L76.9854146,12.1396829 C75.7766341,12.1396829 74.8385854,12.4199268 74.1727317,12.9789512 C73.5046829,13.5387073 73.1710244,14.4840732 73.1710244,15.8150488 L73.1710244,22.3835854 L68.7807805,22.3835854 L68.7807805,7.01773171 L73.1710244,7.01773171 L73.1710244,10.0565122 C73.739561,9.07309756 74.4734634,8.29163415 75.372,7.71358537 L75.372,7.71358537 Z M59.3410244,11.3633415 C58.7878537,10.8657805 58.1059024,10.617 57.2915122,10.617 C56.4398049,10.617 55.7351707,10.8701707 55.1739512,11.3765122 C54.6127317,11.8850488 54.2951707,12.6255366 54.2234634,13.6030976 L60.1415122,13.6030976 C60.1590732,12.6079756 59.8934634,11.8616341 59.3410244,11.3633415 L59.3410244,11.3633415 Z M65.2890732,15.7982195 L53.9556585,15.7982195 C54.0134634,17.0274878 54.3251707,17.912122 54.8922439,18.4484634 C55.4593171,18.9862683 56.1800488,19.2540732 57.0588293,19.2540732 C57.8022439,19.2540732 58.4176098,19.0689512 58.9049268,18.6972439 C59.3922439,18.327 59.7149268,17.8484634 59.8722439,17.2616341 L65.1734634,17.2616341 C64.9561463,18.4155366 64.4878537,19.4443171 63.7663902,20.3530976 C63.0449268,21.2596829 62.1259024,21.9730976 61.0137073,22.4904146 C59.9007805,23.0084634 58.6612683,23.2660244 57.2951707,23.2660244 C55.6927317,23.2660244 54.2717561,22.929439 53.034439,22.2555366 C51.7934634,21.5823659 50.8217561,20.6113902 50.1193171,19.341878 C49.416878,18.0730976 49.0649268,16.5884634 49.0649268,14.8901707 C49.0649268,13.172122 49.409561,11.6830976 50.1046829,10.4238293 C50.796878,9.16456098 51.7700488,8.19797561 53.016878,7.52480488 C54.2673659,6.85163415 55.6927317,6.51358537 57.2951707,6.51358537 C58.914439,6.51358537 60.3398049,6.8465122 61.5712683,7.51017073 C62.7990732,8.17309756 63.7524878,9.1067561 64.4249268,10.3074878 C65.0980976,11.5067561 65.4361463,12.8889512 65.4361463,14.4511463 C65.4361463,14.8609024 65.3878537,15.309439 65.2890732,15.7982195 L65.2890732,15.7982195 Z M36.1978537,12.2699268 C35.5737073,12.9306585 35.2612683,13.8313902 35.2612683,14.9706585 C35.2612683,16.0938293 35.5737073,16.9887073 36.1978537,17.6574878 C36.822,18.3277317 37.6232195,18.6628537 38.6007805,18.6628537 C39.5951707,18.6628537 40.3963902,18.3365122 41.0022439,17.6852927 C41.6088293,17.0340732 41.9124878,16.1296829 41.9124878,14.9706585 C41.9124878,13.8130976 41.6088293,12.9072439 41.0022439,12.2567561 C40.3963902,11.6040732 39.5951707,11.2791951 38.6007805,11.2791951 C37.6232195,11.2791951 36.822,11.6091951 36.1978537,12.2699268 L36.1978537,12.2699268 Z M42.8402927,7.77578049 C43.7732195,8.40870732 44.5100488,9.3167561 45.0493171,10.5006585 C45.5863902,11.6838293 45.857122,13.0835854 45.857122,14.6977317 C45.857122,16.2950488 45.5863902,17.6896829 45.0493171,18.8823659 C44.5100488,20.0757805 43.7732195,20.9882195 42.8402927,21.6211463 C41.9073659,22.2555366 40.8493171,22.5716341 39.6683415,22.5716341 C38.5729756,22.5716341 37.6312683,22.3060244 36.8439512,21.7733415 C36.0551707,21.2413902 35.4815122,20.517 35.1222439,19.5987073 L35.1222439,29.7006585 L30.732,29.7006585 L30.732,7.01773171 L35.1222439,7.01773171 L35.1222439,9.79821951 C35.4815122,8.88065854 36.0551707,8.15626829 36.8439512,7.62358537 C37.6312683,7.09163415 38.5729756,6.82529268 39.6683415,6.82529268 C40.8493171,6.82529268 41.9073659,7.14285366 42.8402927,7.77578049 L42.8402927,7.77578049 Z M21.9515122,22.3835854 L26.3417561,22.3835854 L26.3417561,7.01773171 L21.9515122,7.01773171 L21.9515122,22.3835854 Z M4.39053659,3.35919512 L4.39053659,10.6762683 L12.4393171,10.6762683 L12.4393171,3.35919512 L16.829561,3.35919512 L16.829561,22.3835854 L12.4393171,22.3835854 L12.4393171,14.3348049 L4.39053659,14.3348049 L4.39053659,22.3835854 L0.000292682927,22.3835854 L0.000292682927,3.35919512 L4.39053659,3.35919512 Z M23.7958537,0.000292682927 C25.3287805,0.000292682927 26.5712195,1.24273171 26.5712195,2.77565854 C26.5712195,4.30858537 25.3287805,5.55102439 23.7958537,5.55102439 C22.2629268,5.55102439 21.0204878,4.30858537 21.0204878,2.77565854 C21.0204878,1.24273171 22.2629268,0.000292682927 23.7958537,0.000292682927 Z M109.647512,0.000292682927 C111.180439,0.000292682927 112.422878,1.24273171 112.422878,2.77565854 C112.422878,4.30858537 111.180439,5.55102439 109.647512,5.55102439 C108.114585,5.55102439 106.872146,4.30858537 106.872146,2.77565854 C106.872146,1.24273171 108.114585,0.000292682927 109.647512,0.000292682927 Z" id="Fill-1"></path>
        </g>
    </g>
</svg>