<svg xmlns="http://www.w3.org/2000/svg" viewBox="0 0 512 512"><defs><style>.cls-1{fill:#fff;}</style></defs><title>icon-ui</title><g id="ui"><path class="cls-1" d="M201,450H148.81a7.73,7.73,0,0,0-7.85,7.3,7.5,7.5,0,0,0,7.5,7.7h52.15a7.73,7.73,0,0,0,7.85-7.3A7.5,7.5,0,0,0,201,450Z"/><path class="cls-1" d="M231.69,450h-7.16a7.73,7.73,0,0,0-7.84,7.3,7.5,7.5,0,0,0,7.5,7.7h7.15a7.73,7.73,0,0,0,7.84-7.3A7.5,7.5,0,0,0,231.69,450Z"/><path class="cls-1" d="M434.26,233H372V54.75A38.75,38.75,0,0,0,333.32,16H147.68A38.75,38.75,0,0,0,109,54.75V101H77.74A7.75,7.75,0,0,0,70,108.74v77.52A7.75,7.75,0,0,0,77.74,194H109v55.53a23.22,23.22,0,0,0-15,21.89V279H77.74A7.75,7.75,0,0,0,70,286.74v92.52A7.75,7.75,0,0,0,77.74,387H109v70.07A38.84,38.84,0,0,0,147.68,496H333.32A38.84,38.84,0,0,0,372,457.07V326h62.26a7.75,7.75,0,0,0,7.74-7.74V240.74A7.75,7.75,0,0,0,434.26,233ZM275.91,32l-3.75,15H208.88l-3.75-15ZM86,179V117H210v62h-8.26a7.75,7.75,0,0,0-7.74,7.74v12.68l-18.74-18.23a7.64,7.64,0,0,0-5.37-2.19Zm23,92.26a7.59,7.59,0,0,1,8.41-7.69,7.76,7.76,0,0,1,6.59,7.8V279H109ZM86,372V295h8v7.63a7.76,7.76,0,0,0,6.59,7.8,7.59,7.59,0,0,0,8.41-7.69V295h16v7.63a7.76,7.76,0,0,0,6.59,7.8,7.59,7.59,0,0,0,8.41-7.69V295h8v77Zm54-93v-7.63a7.76,7.76,0,0,1,6.59-7.8,7.59,7.59,0,0,1,8.41,7.69V279ZM357,457.75A23.33,23.33,0,0,1,333.67,481H147.23A23.27,23.27,0,0,1,124,457.77V387h62.26a7.75,7.75,0,0,0,7.74-7.74V286.74a7.75,7.75,0,0,0-7.74-7.74H171v-7.74A22.94,22.94,0,0,0,132.67,254a23,23,0,0,0-7.67-4.59V194h42.27l29.62,28.78a7.72,7.72,0,0,0,5.38,2.19,7.83,7.83,0,0,0,3-.61,7.75,7.75,0,0,0,4.71-7.13V194h7.26a7.75,7.75,0,0,0,7.74-7.74V108.74a7.75,7.75,0,0,0-7.74-7.74H125V54.25A23.26,23.26,0,0,1,148.2,31h40.36l6.27,25.13a7.74,7.74,0,0,0,7.5,5.87h77.34a7.74,7.74,0,0,0,7.5-5.87L293.44,31H333.8A23.26,23.26,0,0,1,357,54.25V233H279.74a7.75,7.75,0,0,0-7.74,7.74v77.52a7.75,7.75,0,0,0,7.74,7.74H287v23.25a7.76,7.76,0,0,0,4.74,7.14,8,8,0,0,0,3,.61,7.75,7.75,0,0,0,5.41-2.19L330,326h27ZM163,372V295h15v77Zm263-62H326.19a7.72,7.72,0,0,0-5.39,2.19L302,330.42V317.74a7.75,7.75,0,0,0-7.74-7.74H287V248H426Z"/><circle class="cls-1" cx="147.61" cy="147.61" r="7.74"/><circle class="cls-1" cx="124.39" cy="147.61" r="7.74"/><circle class="cls-1" cx="170.84" cy="147.61" r="7.74"/><circle class="cls-1" cx="356.65" cy="279.23" r="7.74"/><circle class="cls-1" cx="333.42" cy="279.23" r="7.74"/><circle class="cls-1" cx="379.87" cy="279.23" r="7.74"/></g></svg>