<svg id="direction" xmlns="http://www.w3.org/2000/svg" viewBox="0 0 512 512"><defs><style>.cls-1{fill:#fff;}</style></defs><title>icon-direction</title><path class="cls-1" d="M456.63,16H114.57A28.6,28.6,0,0,0,86,44.56V64H81.66C62.26,64,45.9,79.28,45.47,98.69A35.53,35.53,0,0,0,81,135h5v59H81.66c-19.4,0-35.75,15.29-36.18,34.69A35.54,35.54,0,0,0,81,265h5v59H81.66c-19.4,0-35.76,15.28-36.19,34.68A35.54,35.54,0,0,0,81,395h5v67.6a.41.41,0,0,0,0,.11A33.52,33.52,0,0,0,119.49,496H456.63a9.38,9.38,0,0,0,9.37-9.38V25.38A9.38,9.38,0,0,0,456.63,16ZM80.91,117A17,17,0,0,1,64.25,96.49C65.76,89,73.54,83,81.15,83H86v34Zm0,130a17,17,0,0,1-16.65-20.48C65.75,219,73.54,213,81.16,213H86v34ZM105,213h11.69a9.88,9.88,0,0,1,9.1,13.52c-3.39,9.21,7,17.66,16.16,10.26a5.73,5.73,0,0,0,2.09-4.07A36.14,36.14,0,0,0,108,194h-3V83h10.8c6.53,0,11.35,6.53,9,12.62-3.43,8.79,6.51,17,15.24,9.91a5.48,5.48,0,0,0,2-3.86A34.25,34.25,0,0,0,107.86,65H105V45a10,10,0,0,1,10-10h49v81.22a9.5,9.5,0,1,0,19,.29V35H448V429H183V200.74a9.5,9.5,0,1,0-19-.28V429H119.76A33.4,33.4,0,0,0,105,432.43V343h11.69a9.88,9.88,0,0,1,9.1,13.52c-3.39,9.21,7,17.66,16.16,10.26a5.73,5.73,0,0,0,2.09-4.07A36.14,36.14,0,0,0,108,324h-3ZM80.91,376a17,17,0,0,1-16.66-20.5c1.5-7.47,9.29-13.5,16.9-13.5H86v34Zm39.48,71H448v30H120a15,15,0,0,1,.38-30Z"/><path class="cls-1" d="M397.94,297H239.09A20.08,20.08,0,0,0,219,317.09V381a20.05,20.05,0,0,0,20.06,20H397.94A20.05,20.05,0,0,0,418,381V317A20.06,20.06,0,0,0,397.94,297ZM399,380.69a1.36,1.36,0,0,1-1.34,1.31H238.34a1.36,1.36,0,0,1-1.34-1.31V316.34a1.34,1.34,0,0,1,1.34-1.34H397.67a1.34,1.34,0,0,1,1.33,1.33v64.36Z"/><path class="cls-1" d="M230.22,176l69.34,66.91a9.37,9.37,0,0,0,13,0l23.09-22.27,23.09,22.27a9.36,9.36,0,0,0,13,0l40.06-38.64.24-.24a39.61,39.61,0,0,0,0-54.5,32,32,0,0,0-13.45-8.33,61.1,61.1,0,0,0-16.45-50.29,48.66,48.66,0,0,0-37.64-14.75A57.94,57.94,0,0,0,307.4,91.9l-.65.61-.66.62-.67-.62-.65-.61a58,58,0,0,0-37.13-15.77A48.8,48.8,0,0,0,230,90.89c-22.56,23.4-22.56,61.46,0,84.84l.24.24Zm168.45,14.91-33.41,32.23-22.71-21.92-.12-.13c-.23-.24-.47-.46-.71-.67l-9.86-9.51a20.94,20.94,0,0,1,.1-28.35c6.22-6.45,16.49-4.45,22.43,1.1l.37.35c2.84,2.66,5.77,5.41,10.5,5.41s7.67-2.75,10.51-5.41l.36-.34c5.95-5.56,16.22-7.56,22.44-1.11A20.94,20.94,0,0,1,398.67,190.88Zm-155.2-87c13.68-14.16,35.83-10.15,48.49,1.68l.63.6c4.48,4.2,8,7.51,13.5,7.51s9-3.31,13.49-7.51l.63-.6c12.66-11.84,34.79-15.86,48.46-1.69a42.41,42.41,0,0,1,11,36.92,37.81,37.81,0,0,0-14.43,7.42c-14.41-11.83-34.53-11.45-46.8,1.26a39.61,39.61,0,0,0,0,54.5l.24.25,3.47,3.34-16.09,15.52L243.37,162.6a42.73,42.73,0,0,1,.1-58.69Z"/><path class="cls-1" d="M369.87,339H308.38a9.5,9.5,0,1,0-.16,19H369.7a9.5,9.5,0,1,0,.17-19Z"/><path class="cls-1" d="M266.53,339.25c-6.86,0-12,7.37-7.94,14.62a8.24,8.24,0,0,0,7.22,4.13h1a8.87,8.87,0,0,0,8.06-4.94A9.46,9.46,0,0,0,266.53,339.25Z"/><path class="cls-1" d="M170.06,167.18a9.41,9.41,0,1,0-6.06-8.83v.06A9.23,9.23,0,0,0,170.06,167.18Z"/></svg>