<svg xmlns="http://www.w3.org/2000/svg" viewBox="0 0 512 512"><defs><style>.cls-1{fill:#fff;}</style></defs><title>icon-print</title><g id="print"><path class="cls-1" d="M483.39,162H468.24a7.2,7.2,0,0,0-7.24,6.14,7,7,0,0,0,7,7.86h14V329.15a38.39,38.39,0,0,0-23.3,25.07,38.85,38.85,0,0,0-1.17,5.32,41.75,41.75,0,0,0-23.82,8.71,53,53,0,0,0-26.9-9.36,38.42,38.42,0,0,0-37.48-30.48,37.13,37.13,0,0,0-5.38.38A42,42,0,0,0,326,300.35V176H434.5a7.2,7.2,0,0,0,7.24-6.15,7,7,0,0,0-7-7.85H386V70a18.9,18.9,0,0,0-18.72-19H99.35C94.7,33.18,78.73,20,59.79,20H57A41.12,41.12,0,0,0,16,61.16v362.5c0,.65,0,1.26.05,1.86,0,.39.05.78.08,1.17a.28.28,0,0,0,0,.09,42.32,42.32,0,0,0,42,39.22H312v13.33A12.66,12.66,0,0,0,324.6,492H483.39A12.66,12.66,0,0,0,496,479.33V174.67A12.66,12.66,0,0,0,483.39,162ZM352,338.93a7.06,7.06,0,0,0,6.37,5.95,7.66,7.66,0,0,0,3.17-.48,24,24,0,0,1,7.92-1.33,24.42,24.42,0,0,1,23.33,17.55,52.8,52.8,0,0,0-19.65,8.49A49.3,49.3,0,0,0,326,349.92v-35A28.59,28.59,0,0,1,352,338.93ZM30,61.13A27,27,0,0,1,56.83,34h2.34A27,27,0,0,1,86,61.13V392.28a41.65,41.65,0,0,0-56,0ZM312,428H181.27a7.2,7.2,0,0,0-7.24,6.16A7,7,0,0,0,181,442H311v11H58c-15.44,0-28-13.14-28-29.3s12.55-29.16,28-29.16,28,13.08,28,29.16V435a7,7,0,0,0,7,7H146.8a7.15,7.15,0,0,0,7.07-5.47A7,7,0,0,0,147,428H132V136.1a7.18,7.18,0,0,0-6.16-7.24,7,7,0,0,0-7.84,6.95V428H100V65h18v36.39a7.16,7.16,0,0,0,5.46,7.07,7,7,0,0,0,8.54-6.87V65H366.34A4.76,4.76,0,0,1,371,69.74V162H348V95.91A12.9,12.9,0,0,0,335.14,83H165.86A12.9,12.9,0,0,0,153,95.91V270.08A12.93,12.93,0,0,0,165.9,283H312ZM167,255.85l39.74-69.34L254,269H167ZM312,269H270.51l-3.8-6.64,27-47,18.34,32Zm0-94.32v44.08l-9.33-16.26a10.08,10.08,0,0,0-18.09,0L258.49,248,215.86,173.7a10.07,10.07,0,0,0-18.09,0L167,227.29V97H334v65h-9.62A12.55,12.55,0,0,0,312,174.68ZM429,478H325V426H429ZM326,412V364.6a35.43,35.43,0,0,1,39.14,18.61,7.07,7.07,0,0,0,8.35,3.51,7.33,7.33,0,0,0,2.93-1.81,39.09,39.09,0,0,1,27.18-11A39.69,39.69,0,0,1,443,412Zm156,66H443V426h39Zm0-66H456.79a53.85,53.85,0,0,0-12.55-32.87A28,28,0,0,1,463.18,375a7,7,0,0,0,7.52-4.41,7.52,7.52,0,0,0,.45-3.13A24.69,24.69,0,0,1,482,345.85Z"/></g></svg>