<svg xmlns="http://www.w3.org/2000/svg" viewBox="0 0 512 512"><defs><style>.cls-1{fill:#fff;}</style></defs><title>icon-branding</title><g id="branding"><path class="cls-1" d="M479.68,251H416.53L407,85.37A16.32,16.32,0,0,0,390.69,70H159.76a16.41,16.41,0,0,0-16.37,15.45L139.61,151H55a13,13,0,0,0-13,13v13H29a13,13,0,0,0-13,13v17.34a16.33,16.33,0,0,0,14.35,16.18L35,310.15a7,7,0,0,0,7,6.65h.38A7,7,0,0,0,49,309.4l-2.12-39.94A78.13,78.13,0,0,1,95.83,342.2a78.5,78.5,0,0,1-41.41,69.19l-3.64-68.54a7,7,0,0,0-14.05.75l4.89,92A16.31,16.31,0,0,0,57.91,451h403.7a16.31,16.31,0,0,0,16.3-15.44L485,302.4A16.32,16.32,0,0,0,496,287V267.3A16.33,16.33,0,0,0,479.68,251Zm.08,14a2.24,2.24,0,0,1,2.24,2.24v19.5a2.26,2.26,0,0,1-2.26,2.26H419.38L418,265ZM57.26,165h99.48a2.26,2.26,0,0,1,2.26,2.26V177H55v-9.74A2.26,2.26,0,0,1,57.26,165Zm-25,26H182.74a2.26,2.26,0,0,1,2.26,2.26v14.48a2.26,2.26,0,0,1-2.26,2.26H32.26A2.26,2.26,0,0,1,30,207.74V193.26A2.26,2.26,0,0,1,32.26,191ZM177.85,343h129.9a2.25,2.25,0,0,1,2.25,2.25v48.49a2.26,2.26,0,0,1-2.26,2.26H175Zm5-88h70.87a2.26,2.26,0,0,1,2.26,2.26v39.48a2.26,2.26,0,0,1-2.26,2.26H180.53ZM55.78,434.86l-.44-8.15a92.41,92.41,0,0,0,54.55-84.32A91.72,91.72,0,0,0,91.54,287.1,93.24,93.24,0,0,0,46.2,254.54L44.58,224H170.13L158.94,434.87a2.26,2.26,0,0,1-2.25,2.13H58A2.25,2.25,0,0,1,55.78,434.86ZM461.61,437H427.83a16.48,16.48,0,0,0,.14-3.22L423.25,352a7.1,7.1,0,0,0-14.17.81l4.72,81.75a2.31,2.31,0,0,1-.62,1.7,2.28,2.28,0,0,1-1.66.71H171.43c.06-.46.12-.93.14-1.4L173,409h134.7A16.32,16.32,0,0,0,324,392.68V344.32A16.32,16.32,0,0,0,307.68,328h-129l.82-15h74.15A16.32,16.32,0,0,0,270,296.68V257.32A16.32,16.32,0,0,0,253.68,241H183.45l.94-17.18A16.38,16.38,0,0,0,199,207.73V193.32A16.32,16.32,0,0,0,182.68,177H173v-9.88S165.86,150.8,156.86,151h-3.12l3.67-63.8L172.63,132c2.25,6.62,15.45,11,15.45,11h36.67a7.2,7.2,0,0,0,7.25-6.15,7,7,0,0,0-6.95-7.85H187.74a2.28,2.28,0,0,1-2.15-1.54L170.84,84H379.55L364.8,127.46a2.28,2.28,0,0,1-2.15,1.54H259a7.19,7.19,0,0,0-7.24,6.15A7,7,0,0,0,258.7,143H362.4a16.26,16.26,0,0,0,15.4-11L393,87.26,406.4,319.87a7,7,0,0,0,7,6.61l.41,0a7,7,0,0,0,6.59-7.4L419.47,303h51.39l-7,131.86a2.25,2.25,0,0,1-2.25,2.14Z"/><path class="cls-1" d="M382.5,396h-13a7.2,7.2,0,0,0-7.24,6.15,7,7,0,0,0,7,7.85h13a7.2,7.2,0,0,0,7.25-6.15A7,7,0,0,0,382.5,396Z"/><path class="cls-1" d="M136.55,255h13a7.19,7.19,0,0,0,7.24-6.15,7,7,0,0,0-7-7.85h-13a7.2,7.2,0,0,0-7.24,6.15A7,7,0,0,0,136.55,255Z"/><path class="cls-1" d="M149.76,266h-42a7.2,7.2,0,0,0-7.24,6.15,7,7,0,0,0,7,7.85h42a7.2,7.2,0,0,0,7.24-6.15A7,7,0,0,0,149.76,266Z"/></g></svg>