<svg xmlns="http://www.w3.org/2000/svg" viewBox="0 0 512 512"><defs><style>.cls-1{fill:#fff;}</style></defs><title>icon-guides</title><g id="guides"><path class="cls-1" d="M54.7,455H248.5a7.5,7.5,0,0,0,7.5-7.5h0a7.5,7.5,0,0,0-7.5-7.5H54.23A23.23,23.23,0,0,1,31,416.77V76.23A23.23,23.23,0,0,1,54.23,53H395.77A23.23,23.23,0,0,1,419,76.23V246.5a7.5,7.5,0,0,0,7.5,7.5h0a7.5,7.5,0,0,0,7.5-7.5V75.7A38.76,38.76,0,0,0,395.29,37H54.7A38.76,38.76,0,0,0,16,75.7V416.29A38.76,38.76,0,0,0,54.7,455Z"/><path class="cls-1" d="M54.5,99h341a7.5,7.5,0,0,1,7.5,7.5h0a7.5,7.5,0,0,1-7.5,7.5H54.5a7.5,7.5,0,0,1-7.5-7.5h0A7.5,7.5,0,0,1,54.5,99Z"/><path class="cls-1" d="M121.18,137.65,107,151.84a38.81,38.81,0,1,0,11,10.94l14.19-14.19a7.74,7.74,0,0,0,0-10.94h0A7.73,7.73,0,0,0,121.18,137.65Zm-37,69.63a23.23,23.23,0,0,1,1.47-46.41,23,23,0,0,1,9.95,2.32l-9.95,9.95a7.73,7.73,0,0,0,0,11h0a7.74,7.74,0,0,0,10.94,0l10-9.95a22.74,22.74,0,0,1,2.32,9.95A23.23,23.23,0,0,1,84.21,207.28Z"/><path class="cls-1" d="M154.5,161h117a7.5,7.5,0,0,1,7.5,7.5h0a7.5,7.5,0,0,1-7.5,7.5h-117a7.5,7.5,0,0,1-7.5-7.5h0A7.5,7.5,0,0,1,154.5,161Z"/><path class="cls-1" d="M155.5,192h39a7.5,7.5,0,0,1,7.5,7.5h0a7.5,7.5,0,0,1-7.5,7.5h-39a7.5,7.5,0,0,1-7.5-7.5h0A7.5,7.5,0,0,1,155.5,192Z"/><path class="cls-1" d="M224.5,192h93a7.5,7.5,0,0,1,7.5,7.5h0a7.5,7.5,0,0,1-7.5,7.5h-93a7.5,7.5,0,0,1-7.5-7.5h0A7.5,7.5,0,0,1,224.5,192Z"/><path class="cls-1" d="M302.5,161h62a7.5,7.5,0,0,1,7.5,7.5h0a7.5,7.5,0,0,1-7.5,7.5h-62a7.5,7.5,0,0,1-7.5-7.5h0A7.5,7.5,0,0,1,302.5,161Z"/><path class="cls-1" d="M121.18,230.55,107,244.74a38.82,38.82,0,1,0,11,10.95l14.19-14.19a7.75,7.75,0,0,0,0-10.95h0A7.75,7.75,0,0,0,121.18,230.55Zm-37,69.63a23.23,23.23,0,0,1,1.47-46.41,22.89,22.89,0,0,1,9.95,2.33l-9.95,9.95a7.74,7.74,0,0,0,0,10.95h0a7.74,7.74,0,0,0,10.94,0l10-9.95A22.74,22.74,0,0,1,108.9,277,23.22,23.22,0,0,1,84.21,300.18Z"/><path class="cls-1" d="M154.5,254h117a7.5,7.5,0,0,1,7.5,7.5h0a7.5,7.5,0,0,1-7.5,7.5h-117a7.5,7.5,0,0,1-7.5-7.5h0A7.5,7.5,0,0,1,154.5,254Z"/><path class="cls-1" d="M155.5,285h39a7.5,7.5,0,0,1,7.5,7.5h0a7.5,7.5,0,0,1-7.5,7.5h-39a7.5,7.5,0,0,1-7.5-7.5h0A7.5,7.5,0,0,1,155.5,285Z"/><path class="cls-1" d="M224.5,285h47a7.5,7.5,0,0,1,7.5,7.5h0a7.5,7.5,0,0,1-7.5,7.5h-47a7.5,7.5,0,0,1-7.5-7.5h0A7.5,7.5,0,0,1,224.5,285Z"/><path class="cls-1" d="M302.5,254h16a7.5,7.5,0,0,1,7.5,7.5h0a7.5,7.5,0,0,1-7.5,7.5h-16a7.5,7.5,0,0,1-7.5-7.5h0A7.5,7.5,0,0,1,302.5,254Z"/><path class="cls-1" d="M121.18,323.45,107,337.64a38.83,38.83,0,1,0,11,10.95l14.19-14.19a7.75,7.75,0,0,0,0-10.95h0A7.75,7.75,0,0,0,121.18,323.45Zm-37,69.63a23.22,23.22,0,0,1,1.47-46.4A22.74,22.74,0,0,1,95.63,349L85.68,359a7.73,7.73,0,0,0,0,10.95h0a7.74,7.74,0,0,0,10.94,0l10-9.95a22.74,22.74,0,0,1,2.32,9.95A23.22,23.22,0,0,1,84.21,393.08Z"/><path class="cls-1" d="M154.5,347h86a7.5,7.5,0,0,1,7.5,7.5h0a7.5,7.5,0,0,1-7.5,7.5h-86a7.5,7.5,0,0,1-7.5-7.5h0A7.5,7.5,0,0,1,154.5,347Z"/><path class="cls-1" d="M155.5,378h39a7.5,7.5,0,0,1,7.5,7.5h0a7.5,7.5,0,0,1-7.5,7.5h-39a7.5,7.5,0,0,1-7.5-7.5h0A7.5,7.5,0,0,1,155.5,378Z"/><path class="cls-1" d="M224.5,378h16a7.5,7.5,0,0,1,7.5,7.5h0a7.5,7.5,0,0,1-7.5,7.5h-16a7.5,7.5,0,0,1-7.5-7.5h0A7.5,7.5,0,0,1,224.5,378Z"/><path class="cls-1" d="M379.87,501.52A116.13,116.13,0,1,0,263.74,385.39,116.13,116.13,0,0,0,379.87,501.52Zm0-216.78A100.65,100.65,0,1,1,279.22,385.39,100.65,100.65,0,0,1,379.87,284.74Z"/><path class="cls-1" d="M325.72,393.13h0a7.73,7.73,0,0,0-3.47,10.38l12,24.05a7.76,7.76,0,0,0,5.69,4.18,9.71,9.71,0,0,0,1.2.1,7.79,7.79,0,0,0,5.48-2.27l87.43-87.43a7.74,7.74,0,0,0,0-10.94h0a7.74,7.74,0,0,0-10.94,0L343.28,411,336.1,396.6A7.73,7.73,0,0,0,325.72,393.13Z"/><circle class="cls-1" cx="86.71" cy="75.71" r="7.74"/><circle class="cls-1" cx="54.71" cy="75.71" r="7.74"/><circle class="cls-1" cx="118.71" cy="75.71" r="7.74"/></g></svg>