<svg xmlns="http://www.w3.org/2000/svg" viewBox="0 0 512 512"><defs><style>.cls-1{fill:#fff;}</style></defs><title>icon-web</title><g id="web"><path class="cls-1" d="M64,48v72a8,8,0,0,0,8,8h0a8,8,0,0,0,8-8V48A16,16,0,0,1,96,32H416a16,16,0,0,1,15.07,10.6,8,8,0,0,0,7.44,5.4h.36a7.84,7.84,0,0,0,7.4-10.4A32,32,0,0,0,416,16H96A32,32,0,0,0,64,48Z"/><path class="cls-1" d="M48,496H416a32,32,0,0,0,32-32V440a8,8,0,0,0-8-8h0a8,8,0,0,0-8,8v23.55c0,8.62-6.62,16-15.23,16.43A16,16,0,0,1,400,464V440a8,8,0,0,0-8-8H80V280a8,8,0,0,0-8-8h0a8,8,0,0,0-8,8V432H24a8,8,0,0,0-8,8v24A32,32,0,0,0,48,496ZM32,448H384v16a31.77,31.77,0,0,0,4.3,16H48a16,16,0,0,1-16-16Z"/><path class="cls-1" d="M24,256H184a8,8,0,0,0,8-8V152a8,8,0,0,0-8-8H24a8,8,0,0,0-8,8v96A8,8,0,0,0,24,256Zm8-96H176v80H32Z"/><path class="cls-1" d="M72,184a8,8,0,0,0-11.31,0L50.34,194.34a8,8,0,0,0,0,11.32L60.69,216A8,8,0,0,0,72,216h0a8,8,0,0,0,0-11.31L67.31,200,72,195.31A8,8,0,0,0,72,184Z"/><path class="cls-1" d="M136,184h0a8,8,0,0,0,0,11.31l4.69,4.69L136,204.69A8,8,0,0,0,136,216h0a8,8,0,0,0,11.31,0l10.35-10.34a8,8,0,0,0,0-11.32L147.31,184A8,8,0,0,0,136,184Z"/><path class="cls-1" d="M90.93,213.88l10.95-32.83A8,8,0,0,1,112,176h0a8,8,0,0,1,5,10.12l-11,32.82A8,8,0,0,1,96,224h0A8,8,0,0,1,90.93,213.88Z"/><path class="cls-1" d="M488,64H216a8,8,0,0,0-8,8V232a8,8,0,0,0,8,8H488a8,8,0,0,0,8-8V72A8,8,0,0,0,488,64Zm-8,160H224V204.53l71.84-43.11,70,45.3a8,8,0,0,0,8,.38l57.92-30L480,204.64Zm0-37.78-44-25.16a8,8,0,0,0-7.65-.16L370.7,190.76l-70.32-45.48a8,8,0,0,0-8.47-.14L224,185.87V80H480Z"/><path class="cls-1" d="M396,152a28,28,0,1,0-28-28A28,28,0,0,0,396,152Zm0-40a12,12,0,1,1-12,12A12,12,0,0,1,396,112Z"/><path class="cls-1" d="M96,280v96a8,8,0,0,0,8,8H304a8,8,0,0,0,8-8V280a8,8,0,0,0-8-8H104A8,8,0,0,0,96,280Zm16,8H296v80H112Z"/><path class="cls-1" d="M136,304h16a8,8,0,0,1,8,8h0a8,8,0,0,1-8,8H136a8,8,0,0,1-8-8h0A8,8,0,0,1,136,304Z"/><path class="cls-1" d="M184,304h56a8,8,0,0,1,8,8h0a8,8,0,0,1-8,8H184a8,8,0,0,1-8-8h0A8,8,0,0,1,184,304Z"/><path class="cls-1" d="M272,304h0a8,8,0,0,1,8,8h0a8,8,0,0,1-8,8h0a8,8,0,0,1-8-8h0A8,8,0,0,1,272,304Z"/><path class="cls-1" d="M136,336h80a8,8,0,0,1,8,8h0a8,8,0,0,1-8,8H136a8,8,0,0,1-8-8h0A8,8,0,0,1,136,336Z"/><path class="cls-1" d="M248,336h24a8,8,0,0,1,8,8h0a8,8,0,0,1-8,8H248a8,8,0,0,1-8-8h0A8,8,0,0,1,248,336Z"/><path class="cls-1" d="M104,80h80a8,8,0,0,1,8,8h0a8,8,0,0,1-8,8H104a8,8,0,0,1-8-8h0A8,8,0,0,1,104,80Z"/><path class="cls-1" d="M488,304H336a8,8,0,0,0-8,8v96a8,8,0,0,0,8,8H488a8,8,0,0,0,8-8V312A8,8,0,0,0,488,304Zm-8,96H344V320H480Z"/><path class="cls-1" d="M368,336h0a8,8,0,0,1,8,8h0a8,8,0,0,1-8,8h0a8,8,0,0,1-8-8h0A8,8,0,0,1,368,336Z"/><path class="cls-1" d="M368,368h0a8,8,0,0,1,8,8h0a8,8,0,0,1-8,8h0a8,8,0,0,1-8-8h0A8,8,0,0,1,368,368Z"/><path class="cls-1" d="M400,336h56a8,8,0,0,1,8,8h0a8,8,0,0,1-8,8H400a8,8,0,0,1-8-8h0A8,8,0,0,1,400,336Z"/><path class="cls-1" d="M400,368h56a8,8,0,0,1,8,8h0a8,8,0,0,1-8,8H400a8,8,0,0,1-8-8h0A8,8,0,0,1,400,368Z"/><path class="cls-1" d="M440,256h0a8,8,0,0,1,8,8v16a8,8,0,0,1-8,8h0a8,8,0,0,1-8-8V264A8,8,0,0,1,440,256Z"/><circle class="cls-1" cx="136" cy="56" r="7.74"/><circle class="cls-1" cx="104" cy="56" r="7.74"/><circle class="cls-1" cx="168" cy="56" r="7.74"/></g></svg>