<svg xmlns="http://www.w3.org/2000/svg" viewBox="0 0 512 512"><defs><style>.cls-1{fill:#fff;}</style></defs><title>icon-design</title><g id="design"><path class="cls-1" d="M260,224H196a8,8,0,0,0-8,8V436.72L25.68,274.32A8,8,0,0,0,17,272.64,7.89,7.89,0,0,0,12,280V488a8,8,0,0,0,8,8H260a8,8,0,0,0,8-8V232A8,8,0,0,0,260,224ZM28,480V299.28L208.72,480ZM252,256H228a8,8,0,0,0-8,8h0a8,8,0,0,0,8,8h24v16h-8a8,8,0,0,0-8,8h0a8,8,0,0,0,8,8h8v16h-8a8,8,0,0,0-8,8h0a8,8,0,0,0,8,8h8v16H228a8,8,0,0,0-8,8h0a8,8,0,0,0,8,8h24v16h-8a8,8,0,0,0-8,8h0a8,8,0,0,0,8,8h8v16h-8a8,8,0,0,0-8,8h0a8,8,0,0,0,8,8h8v16H228a8,8,0,0,0-8,8h0a8,8,0,0,0,8,8h24v16H231.28L204,452.72V240h48Z"/><path class="cls-1" d="M44,456a8,8,0,0,0,8,8h98.74a8,8,0,0,0,5.66-13.66L57.66,351.59A8,8,0,0,0,44,357.25Zm16-79.44L131.43,448H60Z"/><path class="cls-1" d="M388,272H371.76A39.35,39.35,0,0,0,380,248a40.14,40.14,0,0,0-32-39.2v-9.33a7.48,7.48,0,0,0-7.47-7.47h-1.22a7.31,7.31,0,0,0-7.31,7.31v9.49A40.14,40.14,0,0,0,300,248a39.35,39.35,0,0,0,8.24,24H292a8,8,0,0,0-8,8V440a8.12,8.12,0,0,0,3.2,6.4L316,468v20a8,8,0,0,0,8,8h0a8,8,0,0,0,8-8V320h16V488a8,8,0,0,0,8,8h0a8,8,0,0,0,8-8V468l28.8-21.6A8.12,8.12,0,0,0,396,440V280A8,8,0,0,0,388,272Zm-48.14-48a24,24,0,1,1-24,24A24,24,0,0,1,339.86,224ZM316,448l-16-12V320h16Zm64-12-16,12V320h16Zm0-132H300V288h80Z"/><path class="cls-1" d="M484,192H420a8,8,0,0,0-8,8V416a7.91,7.91,0,0,0,.72,3.28l32,72a8,8,0,0,0,14.56,0l32-72A7.91,7.91,0,0,0,492,416V200A8,8,0,0,0,484,192Zm-56,64h16V408H428Zm23.86,212.32L446.42,456H457.3ZM464.42,440H439.3l-7.12-16h39.36ZM476,408H460V256h16Zm0-168H428V208h48Z"/><path class="cls-1" d="M396,480h-8a8,8,0,0,0-8,8h0a8,8,0,0,0,8,8h8a40,40,0,0,0,22.55-7,8,8,0,0,0,.69-12.54h0a8.07,8.07,0,0,0-9.87-.56A24,24,0,0,1,396,480Z"/><path class="cls-1" d="M433.68,82.32l-64-64A8.31,8.31,0,0,0,364,16H109.73A41.73,41.73,0,0,0,68,57.73V296a8,8,0,0,0,8,8h0a8,8,0,0,0,8-8V56a24.07,24.07,0,0,1,24-24H356V72a24.07,24.07,0,0,0,24,24h40v72a8,8,0,0,0,8,8h0a8,8,0,0,0,8-8V88A8.31,8.31,0,0,0,433.68,82.32ZM372,67.2V43.28L408.72,80H384.8A12.8,12.8,0,0,1,372,67.2Z"/><path class="cls-1" d="M228,72a8,8,0,0,0-8-8H140a8,8,0,0,0-8,8v80a8,8,0,0,0,8,8h15.91a8.09,8.09,0,0,0,8.09-8.09v-.72a7.19,7.19,0,0,0-7.19-7.19H148V80h64v6.28A7.72,7.72,0,0,0,219.72,94h.57A7.71,7.71,0,0,0,228,86.29Z"/><circle class="cls-1" cx="219.86" cy="120" r="7.74"/><circle class="cls-1" cx="187.86" cy="120" r="7.74"/><circle class="cls-1" cx="251.86" cy="120" r="7.74"/><circle class="cls-1" cx="219.86" cy="184" r="7.74"/><circle class="cls-1" cx="187.86" cy="184" r="7.74"/><circle class="cls-1" cx="251.86" cy="184" r="7.74"/><circle class="cls-1" cx="187.86" cy="152" r="7.74"/><circle class="cls-1" cx="251.86" cy="152" r="7.74"/><circle class="cls-1" cx="291.86" cy="488" r="7.74"/><circle class="cls-1" cx="339.86" cy="248" r="7.74"/></g></svg>