<svg xmlns="http://www.w3.org/2000/svg" viewBox="0 0 512 512"><defs><style>.cls-1{fill:#fff;}</style></defs><title>icon-cms</title><g id="cms"><path class="cls-1" d="M472.8,37H418.21a7.22,7.22,0,0,0-7.32,6.81,7,7,0,0,0,7,7.19h52.54A11.57,11.57,0,0,1,482,62.57v44.36c-37.26-.3-73.33-.29-110,0a7,7,0,0,0-6.57,9.33,7,7,0,0,0,6.65,4.69h.05c36.62-.34,72.64-.36,109.86-.06V436.31a.69.69,0,0,1-.7.69H123.5a3.4,3.4,0,0,0-2.52,1.08c-5.43,6-1.3,12.92,4.46,12.92H488.66a7.34,7.34,0,0,0,7.34-7.34V60.2A23.2,23.2,0,0,0,472.8,37Z"/><path class="cls-1" d="M387.18,37H41.52A25.54,25.54,0,0,0,16,62.51V443.66A7.34,7.34,0,0,0,23.34,451H96.68a3.42,3.42,0,0,0,2.52-1.08c5.43-6,1.29-12.92-4.47-12.92H31.47A1.47,1.47,0,0,1,30,435.53V121c103.58-.34,208.06-.33,310.69,0h0a7,7,0,0,0,6.66-4.71,7.06,7.06,0,0,0-6.64-9.35c-102.64-.35-207.15-.36-310.74,0V58.34A7.34,7.34,0,0,1,37.34,51H386.86a7.22,7.22,0,0,0,7.32-6.82A7,7,0,0,0,387.18,37Z"/><path class="cls-1" d="M335.78,73H86.38a7.2,7.2,0,0,0-7.25,6.15,7,7,0,0,0,7,7.85H335.55a7.15,7.15,0,0,0,7.07-5.47A7,7,0,0,0,335.78,73Z"/><path class="cls-1" d="M363,78.83v.63a7.19,7.19,0,0,0,6.15,7.24A7,7,0,0,0,377,79.76V78.54a7,7,0,0,0-7.85-7A7.2,7.2,0,0,0,363,78.83Z"/><path class="cls-1" d="M391,78.83v.63a7.19,7.19,0,0,0,6.15,7.24A7,7,0,0,0,405,79.76V78.54a7,7,0,0,0-7.85-7A7.2,7.2,0,0,0,391,78.83Z"/><path class="cls-1" d="M419,78.83v.63a7.19,7.19,0,0,0,6.15,7.24A7,7,0,0,0,433,79.76V78.54a7,7,0,0,0-7.85-7A7.2,7.2,0,0,0,419,78.83Z"/><path class="cls-1" d="M413.52,349H357.19a7.2,7.2,0,0,0-7.24,6.15A7,7,0,0,0,356.9,363h56.33a7.2,7.2,0,0,0,7.24-6.15A7,7,0,0,0,413.52,349Z"/><path class="cls-1" d="M413.6,371H393.79a7.2,7.2,0,0,0-7.25,6.15,7,7,0,0,0,6.95,7.85h19.82a7.2,7.2,0,0,0,7.24-6.15A7,7,0,0,0,413.6,371Z"/><path class="cls-1" d="M128.5,268.44,167,229.93a7,7,0,0,0-9.95-9.94l-43.48,43.48a7,7,0,0,0,0,9.94l43.48,43.48A7,7,0,0,0,167,307Z"/><path class="cls-1" d="M398.42,263.47,354.94,220a7,7,0,0,0-9.94,9.94l38.5,38.51L345,307a7,7,0,1,0,9.94,9.94l43.48-43.48a7,7,0,0,0,0-9.94Z"/><path class="cls-1" d="M245.59,224.53a7,7,0,0,0-9.51,2.89l-43.36,81.19a7,7,0,0,0,2.89,9.51,6.91,6.91,0,0,0,3.3.83,7,7,0,0,0,6.21-3.72l43.36-81.18A7,7,0,0,0,245.59,224.53Z"/><path class="cls-1" d="M246,310.15v.34a7.21,7.21,0,0,0,6.15,7.3,7,7,0,0,0,7.85-7v-1a7,7,0,0,0-7.85-6.95A7.2,7.2,0,0,0,246,310.15Z"/><path class="cls-1" d="M278,310.15v.34a7.21,7.21,0,0,0,6.15,7.3,7,7,0,0,0,7.85-7v-1a7,7,0,0,0-7.85-6.95A7.2,7.2,0,0,0,278,310.15Z"/><path class="cls-1" d="M310,310.15v.34a7.21,7.21,0,0,0,6.15,7.3,7,7,0,0,0,7.85-7v-1a7,7,0,0,0-7.85-6.95A7.2,7.2,0,0,0,310,310.15Z"/></g></svg>