<?xml version="1.0" encoding="UTF-8"?>
<svg width="304px" height="84px" viewBox="0 0 304 84" version="1.1" xmlns="http://www.w3.org/2000/svg" xmlns:xlink="http://www.w3.org/1999/xlink">
    <title>logo-light</title>
    <g id="logo-light" stroke="none" stroke-width="1" fill="none" fill-rule="evenodd">
        <path d="M175.736426,40 C178.839593,40 181.92259,40.4422372 184.985418,41.3267117 C188.049253,42.2111862 190.721789,43.3813985 193,44.8363389 L188.463748,54.2737626 C186.262184,52.9763314 183.846816,51.8757866 181.215629,50.9711186 C178.584442,50.0664506 176.424226,49.6141167 174.734981,49.6141167 C173.674035,49.6141167 172.840002,49.8210998 172.231874,50.2340565 C171.622738,50.6470132 171.319178,51.24575 171.319178,52.0332958 C171.319178,53.1348502 171.908144,53.9890345 173.085069,54.5988776 C174.26401,55.2077111 176.129743,55.8670283 178.682267,56.5738001 C181.588776,57.4007232 183.984981,58.2357237 185.869876,59.0818306 C187.75477,59.9269278 189.394598,61.2152719 190.789359,62.9438339 C192.18412,64.6744153 192.880997,66.9562788 192.880997,69.7874049 C192.880997,72.6579083 192.125627,75.0861745 190.612871,77.0722034 C189.101123,79.0572227 187.058902,80.5424533 184.4852,81.5258758 C181.912505,82.507279 179.035243,83 175.85543,83 C172.319614,83 168.774722,82.3992439 165.219745,81.1997511 C161.664768,80.001268 158.591856,78.3595379 156,76.2755706 L160.595753,66.9562788 C162.676297,68.7656147 165.219745,70.2892129 168.224079,71.5270734 C171.229421,72.7669531 173.8122,73.3848737 175.973425,73.3848737 C177.307676,73.3848737 178.348452,73.1294261 179.094745,72.6175214 C179.841038,72.107636 180.214184,71.3796609 180.214184,70.4356157 C180.214184,69.2956936 179.605048,68.4203062 178.387783,67.8114727 C177.170519,67.2016296 175.285625,66.5614962 172.732092,65.893092 C169.864915,65.1469428 167.487871,64.3705034 165.602976,63.5647835 C163.717074,62.7580539 162.087331,61.5100967 160.71274,59.8188926 C159.338149,58.1286982 158.651357,55.9064056 158.651357,53.1530243 C158.651357,50.480417 159.358319,48.1490796 160.772242,46.1630506 C162.186164,44.1780314 164.17796,42.6554428 166.751663,41.592256 C169.324357,40.5300789 172.319614,40 175.736426,40 Z M208,41 L208,65.1426348 C208,67.4532331 208.681,69.3143808 210.043,70.7230615 C211.405,72.1327476 213.107,72.8385962 215.15,72.8385962 C217.153,72.8385962 218.796,72.1428024 220.077,70.7532259 C221.358,69.3626439 222,67.4924469 222,65.1426348 L222,41 L234,41 L234,65.1426348 C234,68.7452778 233.229,71.8884154 231.687,74.5700366 C230.146,77.2526633 227.949,79.3289842 225.101,80.7979938 C222.25,82.2649925 218.933,83 215.147,83 C211.32,83 207.964,82.2649925 205.075,80.7979938 C202.187,79.3289842 199.952,77.2526633 198.371,74.5700366 C196.79,71.8884154 196,68.7452778 196,65.1426348 L196,41 L208,41 Z M255.736426,40 C258.839593,40 261.92259,40.4422372 264.986426,41.3267117 C268.049253,42.2111862 270.721789,43.3813985 273,44.8363389 L268.463748,54.2737626 C266.263192,52.9763314 263.846816,51.8757866 261.215629,50.9711186 C258.58545,50.0664506 256.424226,49.6141167 254.734981,49.6141167 C253.674035,49.6141167 252.840002,49.8210998 252.231874,50.2340565 C251.622738,50.6470132 251.319178,51.24575 251.319178,52.0332958 C251.319178,53.1348502 251.908144,53.9890345 253.085069,54.5988776 C254.26401,55.2077111 256.129743,55.8670283 258.682267,56.5738001 C261.588776,57.4007232 263.984981,58.2357237 265.869876,59.0818306 C267.75477,59.9269278 269.395606,61.2152719 270.789359,62.9438339 C272.18412,64.6744153 272.882005,66.9562788 272.882005,69.7874049 C272.882005,72.6579083 272.125627,75.0861745 270.612871,77.0722034 C269.101123,79.0572227 267.058902,80.5424533 264.486208,81.5258758 C261.912505,82.507279 259.036252,83 255.85543,83 C252.320623,83 248.774722,82.3992439 245.220753,81.1997511 C241.664768,80.001268 238.591856,78.3595379 236,76.2755706 L240.596762,66.9562788 C242.677306,68.7656147 245.220753,70.2892129 248.225087,71.5270734 C251.23043,72.7669531 253.8122,73.3848737 255.973425,73.3848737 C257.308684,73.3848737 258.348452,73.1294261 259.094745,72.6175214 C259.841038,72.107636 260.215193,71.3796609 260.215193,70.4356157 C260.215193,69.2956936 259.605048,68.4203062 258.387783,67.8114727 C257.170519,67.2016296 255.285625,66.5614962 252.733101,65.893092 C249.864915,65.1469428 247.488879,64.3705034 245.603985,63.5647835 C243.717074,62.7580539 242.087331,61.5100967 240.71274,59.8188926 C239.338149,58.1286982 238.651357,55.9064056 238.651357,53.1530243 C238.651357,50.480417 239.358319,48.1490796 240.772242,46.1630506 C242.186164,44.1780314 244.178969,42.6554428 246.751663,41.592256 C249.324357,40.5300789 252.319614,40 255.736426,40 Z M48.9527559,41 C53.3192101,41 57.1687289,41.849 60.5023122,43.545 C63.8348956,45.241 66.4185727,47.639 68.2513436,50.738 C70.0831146,53.838 71,57.416 71,61.471 C71,65.526 70.064117,69.113 68.192351,72.233 C66.3215848,75.353 63.6899138,77.76 60.2973378,79.456 C56.9057618,81.152 52.9882515,82 48.543807,82 L31,82 L31,41 L48.9527559,41 Z M154,41 L154,50 L132,50 L132,57 L152,57 L152,66 L132,66 L132,73 L154,73 L154,82 L120,82 L120,41 L154,41 Z M113.9941,41 L114.0001,70.076 C114.0001,76.646 108.6851,81.99 102.1531,81.992 L102.1531,81.992 L81.0041,82 L81.0001,72.005 L94.7191,72 C97.0051,71.748 98.7331,70.897 99.9821,69.765 C100.8481,68.979 102.0001,67.535 102.0001,64.073 L102.0001,64.073 L102.0001,55.833 C101.7951,53.135 99.5201,51 96.7151,51 L96.7151,51 L90.0671,51 C88.9261,51 88.0001,50.074 88.0001,48.933 L88.0001,48.933 L88.0001,43.067 C88.0001,41.926 88.9261,41 90.0671,41 L90.0671,41 L113.9941,41 Z M48.7564557,51 L43,51 L43,73 L49.3622899,73 C52.2327903,73 54.5541245,72 56.3324747,70 C58.1108249,68 59,65.353 59,62.059 C59,58.765 58.0500354,56.099 56.1511366,54.06 C54.2512074,52.02 51.7876876,51 48.7564557,51 Z M78.6345157,39 C80.1336516,39 81.4026829,39.4903782 82.4416097,40.4711345 C83.4805366,41.4518908 84,42.785075 84,44.4716939 C84,45.8441486 83.5190519,47.2941374 82.5571558,48.8236742 L77.4810304,57 L72,57 L75.2886182,48.7652719 C74.5963295,48.2950324 74.0669904,47.6868427 73.7006008,46.9417096 C73.3361863,46.1965764 73.1534853,45.3930409 73.1534853,44.5290893 C73.1534853,42.9220183 73.6719612,41.5978966 74.7118756,40.5597449 C75.7498148,39.5205863 77.0573615,39 78.6345157,39 Z M86.1577708,1 C90.0885245,1 93.5526134,1.765 96.5530288,3.295 C99.5524472,4.826 101.877794,6.99 103.526078,9.788 C105.175359,12.585 106,15.814 106,19.473 C106,23.133 105.158408,26.371 103.474227,29.185 C101.789048,32 99.4208238,34.173 96.3685566,35.704 C93.3152924,37.235 89.7893804,38 85.7888264,38 L70,38 L70,1 L86.1577708,1 Z M131.865276,1 L147,38 L135.515509,38 L133.335688,32 L118.294229,32 L116.061822,38 L105,38 L120.658595,1 L131.865276,1 Z M149.762108,1 L158.237892,26.599 L166.71468,1 L178,1 L163.642158,38 L152.199247,38 L138,1 L149.762108,1 Z M191,1.0003 L191,38.0003 L180,38.0003 L180,1.0003 L191,1.0003 Z M213.157771,1 C217.088524,1 220.552613,1.765 223.553029,3.295 C226.552447,4.826 228.877794,6.99 230.526078,9.788 C232.175359,12.585 233,15.814 233,19.473 C233,23.133 232.158408,26.371 230.474227,29.185 C228.789048,32 226.420824,34.173 223.368557,35.704 C220.315292,37.235 216.78938,38 212.788826,38 L197,38 L197,1 L213.157771,1 Z M86.0371839,10 L81,10 L81,30 L86.5686663,30 C89.0773426,30 91.1100645,29.09 92.6658404,27.272 C94.2206247,25.455 95,23.048 95,20.052 C95,17.059 94.1680714,14.634 92.5071889,12.781 C90.8443233,10.927 88.6876549,10 86.0371839,10 Z M213.037184,10 L208,10 L208,30 L213.568666,30 C216.077343,30 218.110064,29.09 219.66584,27.272 C221.220625,25.455 222,23.048 222,20.052 C222,17.059 221.168071,14.634 219.507189,12.781 C217.844323,10.927 215.687655,10 213.037184,10 Z M125.553128,12 L121,24 L130,24 L125.553128,12 Z" id="logo" fill="#FFFFFF"></path>
    </g>
</svg>