<?xml version="1.0" encoding="utf-8"?>
<!-- Generator: Adobe Illustrator 27.0.0, SVG Export Plug-In . SVG Version: 6.00 Build 0)  -->
<svg version="1.1" xmlns="http://www.w3.org/2000/svg" xmlns:xlink="http://www.w3.org/1999/xlink" x="0px" y="0px"
	 viewBox="0 0 72 72" style="enable-background:new 0 0 72 72;" xml:space="preserve">
<style type="text/css">
	.st0{fill:#00072D;}
	.st1{fill-rule:evenodd;clip-rule:evenodd;fill:#5E4AE3;}
</style>
<g id="D2">
	<path class="st0" d="M7.6,55.4V30h12.5c2.8,0,5.3,0.5,7.5,1.5c2.2,1,3.8,2.5,5,4.4c1.2,1.9,1.8,4.1,1.8,6.8c0,2.6-0.6,4.9-1.8,6.8
		c-1.2,1.9-2.9,3.4-5,4.4c-2.2,1-4.6,1.5-7.5,1.5H7.6z M16.2,48.8h3.6c1.2,0,2.3-0.2,3.2-0.7c0.9-0.5,1.6-1.1,2.1-2
		c0.5-0.9,0.8-2,0.8-3.3c0-1.3-0.3-2.4-0.8-3.3c-0.5-0.9-1.2-1.6-2.1-2c-0.9-0.5-2-0.7-3.2-0.7h-3.6V48.8z"/>
</g>
<g id="D1">
	<path class="st0" d="M37.6,26.4V1h12.5c2.8,0,5.3,0.5,7.5,1.5c2.2,1,3.8,2.5,5,4.4c1.2,1.9,1.8,4.1,1.8,6.8c0,2.6-0.6,4.9-1.8,6.8
		c-1.2,1.9-2.9,3.4-5,4.4c-2.2,1-4.6,1.5-7.5,1.5H37.6z M46.1,19.7h3.6c1.2,0,2.3-0.2,3.2-0.7s1.6-1.1,2.1-2c0.5-0.9,0.8-2,0.8-3.3
		c0-1.3-0.3-2.4-0.8-3.3c-0.5-0.9-1.2-1.6-2.1-2c-0.9-0.5-2-0.7-3.2-0.7h-3.6V19.7z"/>
</g>
<g id="J">
	<path class="st0" d="M37.6,71v-8.1c2.2-0.1,4.3-0.5,6.4-1.1c2.1-0.6,4-1.5,5.7-2.7c1.7-1.2,3.1-2.9,4.1-5c1-2.1,1.5-4.7,1.5-7.9V30
		h8.6v16.1c-0.1,4.6-1,8.4-2.6,11.5c-1.6,3.1-3.6,5.6-6.1,7.5c-2.5,1.9-5.3,3.3-8.4,4.2C43.8,70.3,40.7,70.8,37.6,71z"/>
</g>
<g id="square">
	<path class="st1" d="M48.4,30v10.8H37.6V30H48.4z"/>
</g>
</svg>
