<?xml version="1.0" encoding="UTF-8"?>
<svg width="304px" height="84px" viewBox="0 0 304 84" version="1.1" xmlns="http://www.w3.org/2000/svg" xmlns:xlink="http://www.w3.org/1999/xlink">
    <title>logo</title>
    <g id="logo" stroke="none" stroke-width="1" fill="none" fill-rule="evenodd">
        <path d="M257.7368,42.0834 C260.8388,42.0834 263.9228,42.5044 266.9868,43.3464 C270.0498,44.1884 272.7218,45.3014 274.9998,46.6864 L270.4628,55.6674 C268.2628,54.4314 265.8478,53.3844 263.2158,52.5234 C260.5848,51.6634 258.4238,51.2324 256.7358,51.2324 C255.6748,51.2324 254.8398,51.4294 254.2318,51.8224 C253.6228,52.2144 253.3188,52.7854 253.3188,53.5344 C253.3188,54.5824 253.9078,55.3954 255.0858,55.9744 C256.2648,56.5544 258.1298,57.1814 260.6838,57.8554 C263.5888,58.6414 265.9858,59.4364 267.8698,60.2414 C269.7558,61.0444 271.3958,62.2714 272.7898,63.9174 C274.1848,65.5634 274.8818,67.7344 274.8818,70.4274 C274.8818,73.1594 274.1258,75.4694 272.6138,77.3594 C271.1018,79.2494 269.0588,80.6624 266.4868,81.5974 C263.9128,82.5314 261.0358,83.0004 257.8558,83.0004 C254.3198,83.0004 250.7758,82.4284 247.2198,81.2884 C243.6648,80.1474 240.5918,78.5854 237.9998,76.6014 L242.5958,67.7344 C244.6768,69.4554 247.2198,70.9054 250.2248,72.0844 C253.2298,73.2624 255.8128,73.8514 257.9738,73.8514 C259.3088,73.8514 260.3498,73.6084 261.0948,73.1224 C261.8408,72.6354 262.2148,71.9424 262.2148,71.0444 C262.2148,69.9604 261.6058,69.1274 260.3888,68.5474 C259.1708,67.9674 257.2858,67.3594 254.7328,66.7224 C251.8648,66.0124 249.4878,65.2734 247.6038,64.5064 C245.7178,63.7394 244.0878,62.5514 242.7128,60.9424 C241.3378,59.3344 240.6518,57.2194 240.6518,54.5994 C240.6518,52.0554 241.3588,49.8384 242.7728,47.9494 C244.1868,46.0594 246.1788,44.6104 248.7518,43.5994 C251.3238,42.5884 254.3198,42.0834 257.7368,42.0834 Z M211,43 L211,65.993 C211,68.193 212,72 216.5,72 C221,72 222,68.231 222,65.993 L222,43 L235,43 L235,65.993 C235,69.425 234.249,72.417 232.748,74.972 C231.247,77.526 229.108,79.504 226.334,80.902 C223.56,82.301 220.329,83 216.643,83 C212.917,83 209.648,82.301 206.836,80.902 C204.023,79.504 201.848,77.526 200.309,74.972 C198.77,72.417 198,69.425 198,65.993 L198,43 L211,43 Z M176.7368,42.0834 C179.8388,42.0834 182.9228,42.5044 185.9868,43.3464 C189.0498,44.1884 191.7218,45.3014 193.9998,46.6864 L189.4628,55.6674 C187.2628,54.4314 184.8478,53.3844 182.2158,52.5234 C179.5848,51.6634 177.4238,51.2324 175.7358,51.2324 C174.6748,51.2324 173.8398,51.4294 173.2318,51.8224 C172.6228,52.2144 172.3188,52.7854 172.3188,53.5344 C172.3188,54.5824 172.9078,55.3954 174.0858,55.9744 C175.2648,56.5544 177.1298,57.1814 179.6838,57.8554 C182.5888,58.6414 184.9858,59.4364 186.8698,60.2414 C188.7558,61.0444 190.3958,62.2714 191.7898,63.9174 C193.1848,65.5634 193.8818,67.7344 193.8818,70.4274 C193.8818,73.1594 193.1258,75.4694 191.6138,77.3594 C190.1018,79.2494 188.0588,80.6624 185.4868,81.5974 C182.9128,82.5314 180.0358,83.0004 176.8558,83.0004 C173.3198,83.0004 169.7758,82.4284 166.2198,81.2884 C162.6648,80.1474 159.5918,78.5854 156.9998,76.6014 L161.5958,67.7344 C163.6768,69.4554 166.2198,70.9054 169.2248,72.0844 C172.2298,73.2624 174.8128,73.8514 176.9738,73.8514 C178.3088,73.8514 179.3498,73.6084 180.0948,73.1224 C180.8408,72.6354 181.2148,71.9424 181.2148,71.0444 C181.2148,69.9604 180.6058,69.1274 179.3888,68.5474 C178.1708,67.9674 176.2858,67.3594 173.7328,66.7224 C170.8648,66.0124 168.4878,65.2734 166.6038,64.5064 C164.7178,63.7394 163.0878,62.5514 161.7128,60.9424 C160.3378,59.3344 159.6518,57.2194 159.6518,54.5994 C159.6518,52.0554 160.3588,49.8384 161.7728,47.9494 C163.1868,46.0594 165.1788,44.6104 167.7518,43.5994 C170.3238,42.5884 173.3198,42.0834 176.7368,42.0834 Z M153,43 L153,53 L133,53 L133,58 L151,58 L151,67 L133,67 L133,72 L153,72 L153,82 L120,82 L120,43 L153,43 Z M112.9941,43 L113.0001,70.658 C113.0001,76.907 107.5241,81.991 100.7941,81.992 L100.7941,81.992 L79.0041,82 L79.0001,74.18 L92.8831,73.176 C95.1951,72.934 96.9441,72.117 98.2081,71.028 C99.0851,70.273 100.2501,68.887 100.2501,65.56 L100.2501,65.56 L100.2501,54.577 C100.2501,53.706 99.5001,53 98.5741,53 L98.5741,53 L89.11,53 C87.945,53 86.999,52.11 86.999,51.014 L86.999,51.014 L87,43 L112.9941,43 Z M47.504,43.0002 C51.762,43.0002 55.515,43.8062 58.765,45.4212 C62.015,47.0342 64.533,49.3142 66.32,52.2632 C68.106,55.2122 69,58.6152 69,62.4722 C69,66.3302 68.087,69.7422 66.263,72.7092 C64.438,75.6772 61.872,77.9672 58.565,79.5802 C55.258,81.1942 51.438,82.0002 47.105,82.0002 L30,82.0002 L30,43.0002 L47.504,43.0002 Z M47.678,53.0002 L43,53.0002 L43,72.0002 L48.17,72.0002 C50.501,72.0002 52.389,71.1372 53.833,69.4092 C55.277,67.6812 56,65.3952 56,62.5512 C56,59.7062 55.229,57.4032 53.686,55.6412 C52.143,53.8812 50.14,53.0002 47.678,53.0002 Z M76.6344,41.0004 C78.1344,41.0004 79.4034,41.4814 80.4424,42.4424 C81.4804,43.4044 82.0004,44.7124 82.0004,46.3654 C82.0004,47.7124 81.5194,49.1344 80.5584,50.6344 L75.4804,58.6534 L70.0004,58.6534 L73.2894,50.5774 C72.5964,50.1154 72.0664,49.5194 71.7014,48.7884 C71.3364,48.0574 71.1534,47.2694 71.1534,46.4224 C71.1534,44.8464 71.6724,43.5474 72.7124,42.5294 C73.7504,41.5094 75.0574,41.0004 76.6344,41.0004 Z M222.056,1.0002 C226.203,1.0002 229.86,1.7862 233.028,3.3572 C236.194,4.9302 238.648,7.1522 240.389,10.0252 C242.129,12.8982 243,16.2152 243,19.9722 C243,23.7312 242.111,27.0562 240.333,29.9472 C238.556,32.8382 236.056,35.0702 232.833,36.6422 C229.61,38.2142 225.889,39.0002 221.666,39.0002 L205,39.0002 L205,1.0002 L222.056,1.0002 Z M200,1 L200,39 L187,39 L187,1 L200,1 Z M155.85,1 L164.751,27.291 L173.651,1 L185.5,1 L170.425,39 L158.408,39 L143.5,1 L155.85,1 Z M137.022,1 L153,39 L140.325,39 L138.384,34 L122.691,34 L120.694,39 L108.476,39 L125.015,1 L137.022,1 Z M222.317,11.0002 L218,11.0002 L218,30.0002 L222.772,30.0002 C224.924,30.0002 226.666,29.1372 228,27.4092 C229.333,25.6822 230,23.3962 230,20.5512 C230,17.7062 229.287,15.4032 227.863,13.6412 C226.438,11.8812 224.59,11.0002 222.317,11.0002 Z M130.681,14 L126,25 L135.248,25 L130.681,14 Z M96,27.4092 C97.333,25.6822 98,23.3962 98,20.5512 C98,17.7062 97.287,15.4032 95.863,13.6412 C94.438,11.8812 92.59,11.0002 90.317,11.0002 L86,11.0002 L86,30.0002 L90.772,30.0002 C92.924,30.0002 94.666,29.1372 96,27.4092 M101.028,3.3572 C104.194,4.9302 106.648,7.1522 108.389,10.0252 C110.129,12.8982 111,16.2152 111,19.9722 C111,23.7312 110.111,27.0562 108.333,29.9472 C106.556,32.8382 104.056,35.0702 100.833,36.6422 C97.61,38.2142 93.889,39.0002 89.666,39.0002 L73,39.0002 L73,1.0002 L90.056,1.0002 C94.203,1.0002 97.86,1.7862 101.028,3.3572" fill="#282828"></path>
    </g>
</svg>